<?xml version="1.0" encoding="UTF-8"?>
<svg version="1.1" xmlns="http://www.w3.org/2000/svg" width="256" height="256">
<path d="M0 0 C7.92 0 15.84 0 24 0 C26.56376546 5.9821194 27.36789278 7.99108455 27 14 C28.134375 13.979375 29.26875 13.95875 30.4375 13.9375 C34 14 34 14 35 15 C35.04063832 16.66617115 35.042721 18.33388095 35 20 C33.02 20.66 31.04 21.32 29 22 C29 23.98 29 25.96 29 28 C29.825 28.226875 30.65 28.45375 31.5 28.6875 C35.73136618 30.27426232 39.25171013 32.50748237 43 35 C43 33.02 43 31.04 43 29 C44.99954746 28.95745644 47.00041636 28.95919217 49 29 C50 30 50 30 50.0625 32.5625 C50.041875 33.366875 50.02125 34.17125 50 35 C48.02 35.99 48.02 35.99 46 37 C47.485 37.99 47.485 37.99 49 39 C49.495 38.01 49.495 38.01 50 37 C52.31 37 54.62 37 57 37 C56.94972656 38.01449219 56.89945312 39.02898438 56.84765625 40.07421875 C57.25625727 42.92580862 57.81775401 43.84076064 60.01904297 45.76416016 C62.77366972 47.55629582 65.57171191 49.20413039 68.4375 50.8125 C70.37473439 51.94223498 72.31098136 53.07366536 74.24609375 54.20703125 C75.54051392 54.94143433 75.54051392 54.94143433 76.86108398 55.69067383 C79 57 79 57 81 59 C80.54545455 64.45454545 80.54545455 64.45454545 78 67 C75.375 67.625 75.375 67.625 73 68 C73.0309375 69.2065625 73.0309375 69.2065625 73.0625 70.4375 C73 73 73 73 72 74 C69.66702567 74.04092937 67.33294775 74.04241723 65 74 C65 71.69 65 69.38 65 67 C62.36 67 59.72 67 57 67 C57 69.31 57 71.62 57 74 C54.69 74 52.38 74 50 74 C50 71.69 50 69.38 50 67 C47.36 67 44.72 67 42 67 C42 69.31 42 71.62 42 74 C40.02 74 38.04 74 36 74 C36 75.65 36 77.3 36 79 C36.66 79.226875 37.32 79.45375 38 79.6875 C41.92734533 81.40571358 45.41260178 83.66774607 49 86 C49.495 84.02 49.495 84.02 50 82 C52.31 82 54.62 82 57 82 C57 84.31 57 86.62 57 89 C56.01 89.495 56.01 89.495 55 90 C55.96679688 90.64066406 56.93359375 91.28132813 57.9296875 91.94140625 C60.62574337 93.72952872 63.31447419 95.52813989 66 97.33203125 C68.37771716 98.92751556 70.76527229 100.48298435 73.1875 102.01171875 C74.074375 102.58535156 74.96125 103.15898438 75.875 103.75 C76.65617188 104.23984375 77.43734375 104.7296875 78.2421875 105.234375 C80.70528766 107.70842227 80.93692521 109.5579186 81 113 C79.90454102 114.66821289 79.90454102 114.66821289 78 116 C75.08911133 116.34057617 75.08911133 116.34057617 71.58203125 116.29296875 C70.32841797 116.28330078 69.07480469 116.27363281 67.78320312 116.26367188 C65.81770508 116.2259668 65.81770508 116.2259668 63.8125 116.1875 C62.47722837 116.17244967 61.14194063 116.15876187 59.80664062 116.14648438 C56.53735424 116.11107694 53.26887907 116.0616889 50 116 C50 116.99 50 117.98 50 119 C47.69 119 45.38 119 43 119 C43.22816406 119.94101563 43.45632812 120.88203125 43.69140625 121.8515625 C43.97886719 123.09679687 44.26632813 124.34203125 44.5625 125.625 C44.85253906 126.85476562 45.14257812 128.08453125 45.44140625 129.3515625 C45.99059728 132.93858643 45.81517436 135.49097129 45 139 C44.34 139 43.68 139 43 139 C42.7525 139.61875 42.505 140.2375 42.25 140.875 C40.79371361 143.35068687 39.62187494 143.95125002 37 145 C34.77003623 140.0864122 33.13066818 135.28901118 31.8125 130.0625 C31.63525391 129.37865234 31.45800781 128.69480469 31.27539062 127.99023438 C30.84532579 126.3280919 30.42194563 124.66422212 30 123 C27.03 125.97 24.06 128.94 21 132 C21.66 132.66 22.32 133.32 23 134 C23.67289063 134.67869141 23.67289063 134.67869141 24.359375 135.37109375 C25.58394905 136.58692084 26.82657061 137.7846206 28.078125 138.97265625 C28.79484375 139.66230469 29.5115625 140.35195312 30.25 141.0625 C31.27867188 142.03896484 31.27867188 142.03896484 32.328125 143.03515625 C34.10880324 145.12786923 34.87397751 146.25490149 35 149 C33.85546875 150.703125 33.85546875 150.703125 32.1875 152.25 C31.37345703 153.03117187 31.37345703 153.03117187 30.54296875 153.828125 C29 155 29 155 27 155 C27 155.66 27 156.32 27 157 C24.69 157 22.38 157 20 157 C20.04640625 156.38511719 20.0928125 155.77023438 20.140625 155.13671875 C20.24931272 152.70289026 20.29283537 150.42019816 20 148 C18.13875077 146.01760473 18.13875077 146.01760473 16 145 C16 144.34 16 143.68 16 143 C13.73603076 142.12985286 13.73603076 142.12985286 11 142 C8.55632582 143.61407204 8.55632582 143.61407204 6.35546875 146.05859375 C5.09379883 147.34926758 5.09379883 147.34926758 3.80664062 148.66601562 C2.94232422 149.58060547 2.07800781 150.49519531 1.1875 151.4375 C0.30384766 152.34822266 -0.57980469 153.25894531 -1.49023438 154.19726562 C-3.67416714 156.45202864 -5.84293649 158.71956727 -8 161 C-7.22785156 161.93457031 -6.45570312 162.86914062 -5.66015625 163.83203125 C-5.22582275 164.35772705 -4.79148926 164.88342285 -4.34399414 165.42504883 C-1.23928983 169.06327726 2.08936726 172.24807325 6 175 C5.52758009 179.25177923 3.15035929 181.29969203 0 184 C-0.99 184 -1.98 184 -3 184 C-3 184.99 -3 185.98 -3 187 C-5.31 187 -7.62 187 -10 187 C-10 184.69 -10 182.38 -10 180 C-9.34 179.67 -8.68 179.34 -8 179 C-9.09779824 177.84806377 -10.20349446 176.70365063 -11.3125 175.5625 C-11.92738281 174.92441406 -12.54226562 174.28632813 -13.17578125 173.62890625 C-15.00644056 171.7778582 -15.00644056 171.7778582 -18 171 C-18.14622803 171.65597168 -18.29245605 172.31194336 -18.44311523 172.98779297 C-19.10521028 175.95080618 -19.77130419 178.91290623 -20.4375 181.875 C-20.66759766 182.90753906 -20.89769531 183.94007813 -21.13476562 185.00390625 C-21.35712891 185.99003906 -21.57949219 186.97617188 -21.80859375 187.9921875 C-22.01282959 188.90339355 -22.21706543 189.81459961 -22.42749023 190.75341797 C-23 193 -23 193 -24 195 C-22.02 195 -20.04 195 -18 195 C-18 197.31 -18 199.62 -18 202 C-16.35 202 -14.7 202 -13 202 C-12.67 201.01 -12.34 200.02 -12 199 C-10.29296875 197.3515625 -10.29296875 197.3515625 -8.1875 195.625 C-5.03968063 192.97272286 -2.55083424 190.2375973 0 187 C0.66 187 1.32 187 2 187 C2.22131592 186.4527124 2.44263184 185.9054248 2.6706543 185.34155273 C4.41575028 182.26768395 6.76594952 179.98694375 9.26953125 177.53515625 C9.78754807 177.01996933 10.30556488 176.50478241 10.83927917 175.97398376 C12.49236715 174.3320505 14.15226177 172.69719981 15.8125 171.0625 C16.91777871 169.96726191 18.02260128 168.87156329 19.12695312 167.77539062 C21.16881385 165.7498107 23.21334469 163.72701058 25.26098633 161.70727539 C27.8504844 159.14778309 30.42768829 156.57675268 33 154 C34.01528619 152.98452448 35.03067308 151.96914964 36.04614258 150.95385742 C36.58632523 150.41367477 37.12650787 149.87349213 37.68305969 149.31694031 C45.12203979 141.87796021 52.5610199 134.4389801 60 127 C63.66752005 128.5391801 65.98580573 130.75485452 68.765625 133.5703125 C69.65507813 134.46621094 70.54453125 135.36210937 71.4609375 136.28515625 C72.84152344 137.69087891 72.84152344 137.69087891 74.25 139.125 C75.19484856 140.07988637 76.14015633 141.03431859 77.0859375 141.98828125 C79.39518338 144.32109087 81.69963203 146.65844086 84 149 C87.70969345 147.60919574 89.72740514 146.5679549 92.1875 143.4375 C94.9338745 140.12745912 97.82803888 137.27372416 101.0625 134.4375 C104.58734504 131.33456823 107.73592258 128.1983272 110.6875 124.55078125 C112 123 112 123 114.8125 120.4375 C117.367482 117.59052006 117.73752039 115.76220778 118 112 C119.04542969 111.94972656 120.09085938 111.89945312 121.16796875 111.84765625 C125.93115791 110.79402521 127.25490117 109.16082797 130.3125 105.4375 C131.84286224 103.59778429 133.39801922 101.77770079 135 100 C135.66 100 136.32 100 137 100 C137 99.34 137 98.68 137 98 C135.68 97.67 134.36 97.34 133 97 C133 94.36 133 91.72 133 89 C135.31 89 137.62 89 140 89 C140 86.69 140 84.38 140 82 C142.64 82 145.28 82 148 82 C148 79.36 148 76.72 148 74 C148.66 73.67 149.32 73.34 150 73 C149.175 72.21625 148.35 71.4325 147.5 70.625 C145 68 145 68 145 66 C145.66 65.67 146.32 65.34 147 65 C147.65772428 61.97065509 147.65772428 61.97065509 148 59 C150.31 59 152.62 59 155 59 C155 60.32 155 61.64 155 63 C159.62 61.68 164.24 60.36 169 59 C169.33 56.69 169.66 54.38 170 52 C172.31 52 174.62 52 177 52 C177 49.36 177 46.72 177 44 C175.02 44 173.04 44 171 44 C170.67 41.69 170.34 39.38 170 37 C172.64 37 175.28 37 178 37 C178 39.31 178 41.62 178 44 C180.31 44 182.62 44 185 44 C185.33 46.31 185.66 48.62 186 51 C188.31 51 190.62 51 193 51 C193 48.69 193 46.38 193 44 C194.98 44 196.96 44 199 44 C200.18581571 56.00638402 198.19282617 66.81385888 195.125 78.375 C194.85079224 79.4137175 194.85079224 79.4137175 194.57104492 80.47341919 C191.25524385 92.91448598 191.25524385 92.91448598 189 97 C190.32 97 191.64 97 193 97 C193 101.95 193 106.9 193 112 C190.69 112 188.38 112 186 112 C185.77570313 111.28457031 185.55140625 110.56914063 185.3203125 109.83203125 C183.70390489 106.36488474 181.6259455 104.3326399 178.875 101.6875 C177.96492187 100.80449219 177.05484375 99.92148438 176.1171875 99.01171875 C175.41851562 98.34785156 174.71984375 97.68398437 174 97 C169.35332696 99.14229731 165.22678352 102.11242935 163.171875 106.94921875 C162.69974317 108.61179727 162.33895063 110.30524684 162 112 C161.25989182 111.92812469 160.51978363 111.85624939 159.75724792 111.78219604 C156.25879438 112.05855024 155.34185153 113.03054333 152.8840332 115.48486328 C152.11005692 116.24630646 151.33608063 117.00774963 150.53865051 117.79226685 C149.71765366 118.62652191 148.8966568 119.46077698 148.05078125 120.3203125 C147.19695358 121.17172821 146.34312592 122.02314392 145.46342468 122.90036011 C143.65956881 124.70519587 141.86192899 126.51626246 140.07006836 128.33300781 C137.32833498 131.10896734 134.56352012 133.8602375 131.79492188 136.609375 C130.04543897 138.36575829 128.297345 140.12352636 126.55078125 141.8828125 C125.7237117 142.70492218 124.89664215 143.52703186 124.04450989 144.37405396 C119.94004731 148.56353675 117.84233042 151.39970079 116 157 C114.02646458 157.74135174 112.02111166 158.40037336 110 159 C107.19463312 161.35318138 107.19463312 161.35318138 104.55859375 164.26171875 C103.55295984 165.30815943 102.54709362 166.35437689 101.54101562 167.40039062 C99.98027695 169.04839853 98.42482427 170.70105073 96.87426758 172.35864258 C95.36517758 173.96411303 93.83824212 175.55086168 92.30859375 177.13671875 C90.95979126 178.57084106 90.95979126 178.57084106 89.58374023 180.03393555 C87 182 87 182 84.29321289 181.92895508 C82 181 82 181 80 179 C79.67 179.33 79.34 179.66 79 180 C76.5 180.125 76.5 180.125 74 180 C73.67 179.67 73.34 179.34 73 179 C73.0825 177.7625 73.165 176.525 73.25 175.25 C73.29383174 171.73719909 73.16382053 171.20126522 70.8125 168.3125 C69.884375 167.549375 68.95625 166.78625 68 166 C67.154375 165.071875 66.30875 164.14375 65.4375 163.1875 C63.04969567 160.55472684 63.04969567 160.55472684 59 161 C56.41666771 163.24958334 56.41666771 163.24958334 54 166 C52.66666667 167.33333333 51.33333333 168.66666667 50 170 C50.33 170.99 50.66 171.98 51 173 C51.99 172.34 52.98 171.68 54 171 C55.5453133 175.00376627 56.93011156 178.66668592 57.8125 182.875 C58.69746109 186.30306261 58.69746109 186.30306261 62.125 187.4375 C63.07375 187.623125 64.0225 187.80875 65 188 C65 189.98 65 191.96 65 194 C63.68 194.33 62.36 194.66 61 195 C61.21205078 195.80219971 61.42410156 196.60439941 61.64257812 197.4309082 C62.59884843 201.05711674 63.54948906 204.68477775 64.5 208.3125 C64.83386719 209.57513672 65.16773437 210.83777344 65.51171875 212.13867188 C65.82753906 213.34716797 66.14335938 214.55566406 66.46875 215.80078125 C66.76201172 216.91622314 67.05527344 218.03166504 67.35742188 219.1809082 C68 222 68 222 68 225 C69.65 225.33 71.3 225.66 73 226 C73 227.65 73 229.3 73 231 C72.01 231.33 71.02 231.66 70 232 C70.99 235.465 70.99 235.465 72 239 C58.20655247 240.03307374 58.20655247 240.03307374 53.625 236.125 C51 233.44827586 51 233.44827586 51 231 C50.43796875 230.76667969 49.8759375 230.53335938 49.296875 230.29296875 C46.43265858 228.68062924 44.52747979 226.6806438 42.25 224.3125 C38.00606009 219.97425032 33.61244412 215.93803975 29 212 C28.67 211.67 28.34 211.34 28 211 C27.505 213.97 27.505 213.97 27 217 C24.69 217 22.38 217 20 217 C20 214.69 20 212.38 20 210 C21.98 210 23.96 210 26 210 C25.01 208.8553125 25.01 208.8553125 24 207.6875 C22 205 22 205 22 202 C21.34 202.33 20.68 202.66 20 203 C20.020625 203.969375 20.04125 204.93875 20.0625 205.9375 C20 209 20 209 19 210 C17.1746875 209.8453125 17.1746875 209.8453125 15.3125 209.6875 C11.8947821 209.6628678 10.09442254 210.18363412 7.5 212.4375 C5.05324833 215.19505526 4.63654899 217.21974476 4.625 220.875 C4.72046101 222.25236604 4.83549975 223.62916461 5 225 C2.69 225 0.38 225 -2 225 C-2.66 227.31 -3.32 229.62 -4 232 C-5.03125 231.855625 -6.0625 231.71125 -7.125 231.5625 C-8.40375 231.706875 -9.6825 231.85125 -11 232 C-12.21025813 233.58089139 -12.21025813 233.58089139 -13.28125 235.5 C-15.5561426 238.31736699 -16.66545224 238.94148019 -20.29248047 239.57592773 C-24.34088297 239.68896721 -28.33137106 239.61149517 -32.375 239.4375 C-33.79289199 239.40235235 -35.21086753 239.37041934 -36.62890625 239.34179688 C-40.08968695 239.27096218 -43.53880222 239.13410545 -47 239 C-46.01 234.38 -45.02 229.76 -44 225 C-45.32 224.67 -46.64 224.34 -48 224 C-48 221.69 -48 219.38 -48 217 C-46.02 216.67 -44.04 216.34 -42 216 C-40.68 211.38 -39.36 206.76 -38 202 C-38.66 202 -39.32 202 -40 202 C-40 199.69 -40 197.38 -40 195 C-38.68 195 -37.36 195 -36 195 C-35.67 192.69 -35.34 190.38 -35 188 C-36.65 187.67 -38.3 187.34 -40 187 C-40 184.69 -40 182.38 -40 180 C-37.36 180 -34.72 180 -32 180 C-31.87616943 178.86248291 -31.75233887 177.72496582 -31.62475586 176.55297852 C-31.05378841 172.00278313 -30.07938413 167.60644306 -29.00390625 163.15234375 C-28.81030014 162.33681534 -28.61669403 161.52128693 -28.41722107 160.68104553 C-28.00988133 158.968772 -27.60051527 157.25697935 -27.18920898 155.5456543 C-26.5636546 152.94230508 -25.94437766 150.33752486 -25.32617188 147.73242188 C-24.9274491 146.0598086 -24.52837246 144.38727963 -24.12890625 142.71484375 C-23.85379967 141.55987648 -23.85379967 141.55987648 -23.57313538 140.38157654 C-22.4906185 135.88493714 -21.30194912 131.43821292 -20 127 C-21.65 127 -23.3 127 -25 127 C-25 124.36 -25 121.72 -25 119 C-27.64 119 -30.28 119 -33 119 C-33 118.01 -33 117.02 -33 116 C-33.62567871 116.01047363 -34.25135742 116.02094727 -34.89599609 116.03173828 C-37.7222901 116.07323191 -40.54852011 116.09930473 -43.375 116.125 C-44.35984375 116.14175781 -45.3446875 116.15851563 -46.359375 116.17578125 C-47.30039062 116.18222656 -48.24140625 116.18867187 -49.2109375 116.1953125 C-50.51490479 116.21102295 -50.51490479 116.21102295 -51.84521484 116.22705078 C-54 116 -54 116 -56 114 C-56.8125 110.875 -56.8125 110.875 -56 107 C-51.32252147 102.55479352 -46.07130536 99.18655787 -40 97 C-40 94.36 -40 91.72 -40 89 C-37.69 89 -35.38 89 -33 89 C-33 86.69 -33 84.38 -33 82 C-30.69 82 -28.38 82 -26 82 C-26 83.65 -26 85.3 -26 87 C-25.15695313 86.4225 -24.31390625 85.845 -23.4453125 85.25 C-22.33870565 84.49975807 -21.23192581 83.74977126 -20.125 83 C-19.03445312 82.2575 -17.94390625 81.515 -16.8203125 80.75 C-14 79 -14 79 -12 79 C-11.67 77.35 -11.34 75.7 -11 74 C-13.31 74 -15.62 74 -18 74 C-18 71.69 -18 69.38 -18 67 C-21.465 67.495 -21.465 67.495 -25 68 C-25 69.98 -25 71.96 -25 74 C-27.64 74 -30.28 74 -33 74 C-33 71.69 -33 69.38 -33 67 C-35.31 67 -37.62 67 -40 67 C-40 69.31 -40 71.62 -40 74 C-42.64 74 -45.28 74 -48 74 C-48 71.69 -48 69.38 -48 67 C-48.94875 67.04125 -49.8975 67.0825 -50.875 67.125 C-54 67 -54 67 -56 65 C-56.6875 61.75 -56.6875 61.75 -56 58 C-53.28045883 55.50033662 -50.22001877 53.7828963 -47 52 C-45.5459375 51.071875 -45.5459375 51.071875 -44.0625 50.125 C-42 49 -42 49 -40 49 C-40 47.35 -40 45.7 -40 44 C-36.535 43.505 -36.535 43.505 -33 43 C-33 41.02 -33 39.04 -33 37 C-30.36 37 -27.72 37 -25 37 C-25 37.66 -25 38.32 -25 39 C-22.4754954 37.70168335 -19.9870784 36.36677281 -17.5 35 C-16.42685547 34.45666016 -16.42685547 34.45666016 -15.33203125 33.90234375 C-13.25845717 32.7371926 -11.62696924 31.73995322 -10 30 C-9.34612369 27.0739035 -9.61454354 25.03225748 -10 22 C-8.02 22 -6.04 22 -4 22 C-4 19.36 -4 16.72 -4 14 C-5.98 14 -7.96 14 -10 14 C-10 11.69 -10 9.38 -10 7 C-7.69 7 -5.38 7 -3 7 C-2.01 4.69 -1.02 2.38 0 0 Z M12 10 C11.67 10.99 11.34 11.98 11 13 C10.01 13.33 9.02 13.66 8 14 C8 16.64 8 19.28 8 22 C9.32 22 10.64 22 12 22 C12 23.32 12 24.64 12 26 C13.65 26 15.3 26 17 26 C17 24.35 17 22.7 17 21 C15.35 21 13.7 21 12 21 C12 18.69 12 16.38 12 14 C13.32 14 14.64 14 16 14 C15.67 12.68 15.34 11.36 15 10 C14.01 10 13.02 10 12 10 Z M12 37 C12 39.31 12 41.62 12 44 C14.64 44.33 17.28 44.66 20 45 C19.67 42.36 19.34 39.72 19 37 C16.69 37 14.38 37 12 37 Z M31 42 C31.14133499 43.77119803 31.28823208 45.54195287 31.4375 47.3125 C31.51871094 48.29863281 31.59992188 49.28476562 31.68359375 50.30078125 C31.91812559 53.09375599 31.91812559 53.09375599 33 56 C33.66 56 34.32 56 35 56 C35 54.68 35 53.36 35 52 C37.31 52 39.62 52 42 52 C42 53.32 42 54.64 42 56 C45.96 56 49.92 56 54 56 C49.72095028 52.33713344 45.10248739 49.56493366 40.25 46.75 C39.47011719 46.29109375 38.69023438 45.8321875 37.88671875 45.359375 C34.63493023 43.09756645 34.63493023 43.09756645 31 42 Z M-8 42 C-8.66 42.66 -9.32 43.32 -10 44 C-9.01 44 -8.02 44 -7 44 C-7.33 43.34 -7.66 42.68 -8 42 Z M4 45 C3.76636119 46.84891946 3.58696365 48.70488031 3.4375 50.5625 C3.35371094 51.57441406 3.26992188 52.58632813 3.18359375 53.62890625 C3.12300781 54.41136719 3.06242187 55.19382812 3 56 C3.66 56 4.32 56 5 56 C5 54.68 5 53.36 5 52 C7.31 52 9.62 52 12 52 C12 53.32 12 54.64 12 56 C14.97 56 17.94 56 21 56 C21 53.69 21 51.38 21 49 C20.67 49.66 20.34 50.32 20 51 C17.36 51 14.72 51 12 51 C12 48.69 12 46.38 12 44 C7.67679914 43.49633499 7.67679914 43.49633499 4 45 Z M-20.5625 49.4375 C-21.46419922 49.95376953 -22.36589844 50.47003906 -23.29492188 51.00195312 C-24.57399414 51.74155273 -24.57399414 51.74155273 -25.87890625 52.49609375 C-26.6685376 52.95169678 -27.45816895 53.4072998 -28.27172852 53.87670898 C-28.84205811 54.24739502 -29.4123877 54.61808105 -30 55 C-30 55.33 -30 55.66 -30 56 C-26.04 56 -22.08 56 -18 56 C-18 54.68 -18 53.36 -18 52 C-15.36 52 -12.72 52 -10 52 C-10 49.36 -10 46.72 -10 44 C-13.34546099 44 -17.72873998 47.79583141 -20.5625 49.4375 Z M-10 52 C-10 53.32 -10 54.64 -10 56 C-9.34 56 -8.68 56 -8 56 C-8 54.68 -8 53.36 -8 52 C-8.66 52 -9.32 52 -10 52 Z M178 52 C178 53.65 178 55.3 178 57 C180.31 56.34 182.62 55.68 185 55 C185 54.01 185 53.02 185 52 C182.69 52 180.38 52 178 52 Z M2 67 C0.79438816 67.98267859 0.79438816 67.98267859 0.90234375 69.84765625 C0.91394531 70.57855469 0.92554688 71.30945313 0.9375 72.0625 C0.958125 73.361875 0.97875 74.66125 1 76 C6.02191479 76.08173098 10.89523278 76.16036944 15.875 75.4375 C18.94049126 75.00833122 21.03715888 75.19195242 24 76 C24 75.34 24 74.68 24 74 C22.68 74 21.36 74 20 74 C20 71.69 20 69.38 20 67 C17.36 67 14.72 67 12 67 C12 69.31 12 71.62 12 74 C9.69 74 7.38 74 5 74 C5 71.69 5 69.38 5 67 C4.01 67 3.02 67 2 67 Z M34 67 C35 69 35 69 35 69 Z M155 78 C155.33 78.99 155.66 79.98 156 81 C156 80.01 156 79.02 156 78 C155.67 78 155.34 78 155 78 Z M148 82 C148 83.98 148 85.96 148 88 C149.68762851 86.3545622 151.3540349 84.68711423 153 83 C153 82.67 153 82.34 153 82 C151.35 82 149.7 82 148 82 Z M-1 87 C-2.1577506 90.47325181 -2.06866652 93.36067448 -2 97 C0.31 97 2.62 97 5 97 C5 94.36 5 91.72 5 89 C7.31 89 9.62 89 12 89 C12 91.31 12 93.62 12 96 C14.64 96 17.28 96 20 96 C20 93.69 20 91.38 20 89 C21.98 89 23.96 89 26 89 C26 88.34 26 87.68 26 87 C17.09 87 8.18 87 -1 87 Z M-33 89 C-32.67 89.99 -32.34 90.98 -32 92 C-31.01 91.01 -30.02 90.02 -29 89 C-30.32 89 -31.64 89 -33 89 Z M140 89 C140 90.98 140 92.96 140 95 C144.06024321 92.96197865 144.06024321 92.96197865 146 89 C144.02 89 142.04 89 140 89 Z M38 93 C38 94.32 38 95.64 38 97 C39.32 97 40.64 97 42 97 C42 99.31 42 101.62 42 104 C41.01 104.495 41.01 104.495 40 105 C44.95 105 49.9 105 55 105 C51.65327622 101.65327622 48.72174344 99.32124416 44.8125 96.75 C43.74644531 96.04359375 42.68039063 95.3371875 41.58203125 94.609375 C39.36564677 92.91184002 39.36564677 92.91184002 38 93 Z M-19.4765625 96.15234375 C-20.146875 96.59900391 -20.8171875 97.04566406 -21.5078125 97.50585938 C-22.20648438 97.97830078 -22.90515625 98.45074219 -23.625 98.9375 C-24.33140625 99.40607422 -25.0378125 99.87464844 -25.765625 100.35742188 C-27.53089152 101.5416499 -29.26812135 102.76745863 -31 104 C-31 104.33 -31 104.66 -31 105 C-25.72 105 -20.44 105 -15 105 C-14.67 101.37 -14.34 97.74 -14 94 C-16.51831085 94 -17.39380902 94.76175958 -19.4765625 96.15234375 Z M5 97 C4.67 98.98 4.34 100.96 4 103 C1.69 103.33 -0.62 103.66 -3 104 C-3 104.33 -3 104.66 -3 105 C7.23 105 17.46 105 28 105 C27.67 102.36 27.34 99.72 27 97 C24.69 97 22.38 97 20 97 C20 99.31 20 101.62 20 104 C17.36 104 14.72 104 12 104 C12 101.69 12 99.38 12 97 C9.69 97 7.38 97 5 97 Z M-25 116 C-25 116.99 -25 117.98 -25 119 C-22.69 119 -20.38 119 -18 119 C-17.67 118.01 -17.34 117.02 -17 116 C-19.64 116 -22.28 116 -25 116 Z M4 116 C4.9075 117.155 5.815 118.31 6.75 119.5 C7.26046875 120.1496875 7.7709375 120.799375 8.296875 121.46875 C10.11404296 123.44572515 10.11404296 123.44572515 14 123 C16.79197732 120.70817728 16.79197732 120.70817728 19 118 C19 117.34 19 116.68 19 116 C14.05 116 9.1 116 4 116 Z M-7 122 C-8.29243536 126.1196377 -9.26252625 129.66831683 -9 134 C-7.02 134 -5.04 134 -3 134 C-2.67 135.32 -2.34 136.64 -2 138 C-0.02 136.35 1.96 134.7 4 133 C0.6189962 128.86378916 -2.66590534 125.18683431 -7 122 Z M-11 138 C-11.66 141.63 -12.32 145.26 -13 149 C-10.69 147.02 -8.38 145.04 -6 143 C-6.99 142.34 -7.98 141.68 -9 141 C-9.66 140.01 -10.32 139.02 -11 138 Z M42 178 C42 180.97 42 183.94 42 187 C40.845 186.67 39.69 186.34 38.5 186 C35.31155217 185.55020111 34.31933965 185.76319239 31.6875 187.71484375 C29.69176833 189.74264968 27.80732722 191.80332836 26 194 C28.57181746 197.85772618 30.69279085 198.56426362 35 200 C35 198.35 35 196.7 35 195 C37.31 195 39.62 195 42 195 C42 197.31 42 199.62 42 202 C44.64 202.33 47.28 202.66 50 203 C49.44636539 194.97229811 47.34312056 187.66145933 45 180 C44.34 180 43.68 180 43 180 C42.67 179.34 42.34 178.68 42 178 Z M-26 201 C-26.69621314 203.45616825 -27.38224628 205.9144123 -28.0625 208.375 C-28.26166016 209.07367188 -28.46082031 209.77234375 -28.66601562 210.4921875 C-29.92631404 214.29700366 -29.92631404 214.29700366 -29 218 C-26.14116069 215.2252442 -23.36491168 212.38837653 -20.6875 209.4375 C-20.17574219 208.87933594 -19.66398437 208.32117188 -19.13671875 207.74609375 C-17.63627912 205.78854476 -17.63627912 205.78854476 -18 202 C-20.64 201.67 -23.28 201.34 -26 201 Z M36 202 C37.6454378 203.68762851 39.31288577 205.3540349 41 207 C41.33 207 41.66 207 42 207 C42 205.35 42 203.7 42 202 C40.02 202 38.04 202 36 202 Z M50 203 C49.9175 203.94875 49.835 204.8975 49.75 205.875 C49 209 49 209 46.9375 210.375 C45.9784375 210.684375 45.9784375 210.684375 45 211 C46.28965176 212.37562854 47.62689293 213.70766393 49 215 C49.66 215 50.32 215 51 215 C51.33 215.99 51.66 216.98 52 218 C52.66 218 53.32 218 54 218 C53.44854729 212.76119922 52.57077907 208.02649303 51 203 C50.67 203 50.34 203 50 203 Z " fill="#119753" transform="translate(57,8)"/>
<path d="M0 0 C0.99 0.66 1.98 1.32 3 2 C3.99 1.34 4.98 0.68 6 0 C7.5453133 4.00376627 8.93011156 7.66668592 9.8125 11.875 C10.69746109 15.30306261 10.69746109 15.30306261 14.125 16.4375 C15.07375 16.623125 16.0225 16.80875 17 17 C17 18.98 17 20.96 17 23 C15.68 23.33 14.36 23.66 13 24 C13.31807617 25.20329956 13.31807617 25.20329956 13.64257812 26.4309082 C14.59884843 30.05711674 15.54948906 33.68477775 16.5 37.3125 C16.83386719 38.57513672 17.16773438 39.83777344 17.51171875 41.13867188 C17.82753906 42.34716797 18.14335938 43.55566406 18.46875 44.80078125 C18.76201172 45.91622314 19.05527344 47.03166504 19.35742188 48.1809082 C20 51 20 51 20 54 C21.65 54.33 23.3 54.66 25 55 C25 56.65 25 58.3 25 60 C24.01 60.33 23.02 60.66 22 61 C22.66 63.31 23.32 65.62 24 68 C10.20655247 69.03307374 10.20655247 69.03307374 5.625 65.125 C3 62.44827586 3 62.44827586 3 60 C2.43796875 59.76667969 1.8759375 59.53335938 1.296875 59.29296875 C-1.56734142 57.68062924 -3.47252021 55.6806438 -5.75 53.3125 C-9.99393991 48.97425032 -14.38755588 44.93803975 -19 41 C-19.33 40.67 -19.66 40.34 -20 40 C-20.33 41.98 -20.66 43.96 -21 46 C-23.31 46 -25.62 46 -28 46 C-28 43.69 -28 41.38 -28 39 C-26.02 39 -24.04 39 -22 39 C-22.66 38.236875 -23.32 37.47375 -24 36.6875 C-26 34 -26 34 -26 31 C-26.66 31 -27.32 31 -28 31 C-26.79618552 28.50638429 -25.54571278 26.31856917 -24 24 C-19.12637153 24.45336079 -16.60957611 25.7089159 -13 29 C-13 27.35 -13 25.7 -13 24 C-10.69 24 -8.38 24 -6 24 C-6 26.31 -6 28.62 -6 31 C-3.69 31 -1.38 31 1 31 C0.87882812 30.33355469 0.75765625 29.66710937 0.6328125 28.98046875 C-1.18359375 18.99023438 -1.18359375 18.99023438 -3 9 C-3.66 9 -4.32 9 -5 9 C-5.33 8.01 -5.66 7.02 -6 6 C-4.02 4.02 -2.04 2.04 0 0 Z M-12 31 C-10.3545622 32.68762851 -8.68711423 34.3540349 -7 36 C-6.67 36 -6.34 36 -6 36 C-6 34.35 -6 32.7 -6 31 C-7.98 31 -9.96 31 -12 31 Z M2 32 C1.9175 32.94875 1.835 33.8975 1.75 34.875 C1 38 1 38 -1.0625 39.375 C-2.0215625 39.684375 -2.0215625 39.684375 -3 40 C-1.71034824 41.37562854 -0.37310707 42.70766393 1 44 C1.66 44 2.32 44 3 44 C3.33 44.99 3.66 45.98 4 47 C4.66 47 5.32 47 6 47 C5.44854729 41.76119922 4.57077907 37.02649303 3 32 C2.67 32 2.34 32 2 32 Z " fill="#179755" transform="translate(105,179)"/>
<path d="M0 0 C2.64 0 5.28 0 8 0 C8 2.31 8 4.62 8 7 C10.31 7 12.62 7 15 7 C15.33 9.31 15.66 11.62 16 14 C18.31 14.33 20.62 14.66 23 15 C20.36095629 16.41377341 17.92879371 17.37240135 15 18 C15 17.01 15 16.02 15 15 C12.69 15 10.38 15 8 15 C8 16.65 8 18.3 8 20 C5.36 20.66 2.72 21.32 0 22 C0 19.69 0 17.38 0 15 C2.31 15 4.62 15 7 15 C7 12.36 7 9.72 7 7 C5.02 7 3.04 7 1 7 C0.67 4.69 0.34 2.38 0 0 Z " fill="#FCFDFB" transform="translate(227,45)"/>
<path d="M0 0 C2.31 0 4.62 0 7 0 C7 2.31 7 4.62 7 7 C9.64 7 12.28 7 15 7 C15 4.69 15 2.38 15 0 C16.98 0 18.96 0 21 0 C21.33 2.64 21.66 5.28 22 8 C19.69 8 17.38 8 15 8 C15 10.31 15 12.62 15 15 C12.36 15 9.72 15 7 15 C7 12.69 7 10.38 7 8 C4.69 8 2.38 8 0 8 C0 5.36 0 2.72 0 0 Z " fill="#FAFBFA" transform="translate(62,97)"/>
<path d="M0 0 C2.64 0 5.28 0 8 0 C8 4.95 8 9.9 8 15 C5.69 15 3.38 15 1 15 C0 14 0 14 -0.09765625 10.83984375 C-0.08025391 8.90818359 -0.08025391 8.90818359 -0.0625 6.9375 C-0.05347656 5.64714844 -0.04445312 4.35679688 -0.03515625 3.02734375 C-0.02355469 2.02832031 -0.01195312 1.02929688 0 0 Z " fill="#FCFDFC" transform="translate(167,105)"/>
<path d="M0 0 C2.31 0 4.62 0 7 0 C7.8356429 2.9280927 8.16205486 5.58176143 8.1875 8.625 C8.20167969 9.40101562 8.21585938 10.17703125 8.23046875 10.9765625 C8 13 8 13 6 15 C3.4375 15.1875 3.4375 15.1875 1 15 C0 14 0 14 -0.09765625 10.83984375 C-0.08025391 8.90818359 -0.08025391 8.90818359 -0.0625 6.9375 C-0.05347656 5.64714844 -0.04445312 4.35679688 -0.03515625 3.02734375 C-0.02355469 2.02832031 -0.01195312 1.02929688 0 0 Z " fill="#FCFCFC" transform="translate(152,105)"/>
<path d="M0 0 C2.64 0 5.28 0 8 0 C8 2.31 8 4.62 8 7 C9.98 7 11.96 7 14 7 C14 9.64 14 12.28 14 15 C12.35 15 10.7 15 9 15 C8.34 12.69 7.68 10.38 7 8 C4.69 7.67 2.38 7.34 0 7 C0 4.69 0 2.38 0 0 Z " fill="#FCFCFB" transform="translate(242,173)"/>
<path d="M0 0 C1.98 0 3.96 0 6 0 C6 2.64 6 5.28 6 8 C4.02 8 2.04 8 0 8 C0 10.31 0 12.62 0 15 C-2.33294775 15.04241723 -4.66702567 15.04092937 -7 15 C-8 14 -8 14 -8.0625 10.9375 C-8.041875 9.968125 -8.02125 8.99875 -8 8 C-4.535 7.505 -4.535 7.505 -1 7 C-0.67 4.69 -0.34 2.38 0 0 Z " fill="#FCFCFB" transform="translate(250,150)"/>
<path d="M0 0 C1.32 0 2.64 0 4 0 C4 4.95 4 9.9 4 15 C1.69 15 -0.62 15 -3 15 C-4.18956883 10.84773144 -3.78960563 8.61274007 -2.0625 4.6875 C-1.68222656 3.80449219 -1.30195313 2.92148438 -0.91015625 2.01171875 C-0.60980469 1.34785156 -0.30945313 0.68398437 0 0 Z " fill="#F8FAF8" transform="translate(246,105)"/>
<path d="M0 0 C1.98 0.99 1.98 0.99 4 2 C3.01 2.495 3.01 2.495 2 3 C2.33 7.29 2.66 11.58 3 16 C3.66 16 4.32 16 5 16 C5 14.68 5 13.36 5 12 C7.31 12 9.62 12 12 12 C12 13.65 12 15.3 12 17 C10.35492782 17.19406478 8.70890406 17.38007935 7.0625 17.5625 C6.14597656 17.66691406 5.22945313 17.77132812 4.28515625 17.87890625 C3.15400391 17.93884766 3.15400391 17.93884766 2 18 C-0.11925604 15.88074396 0.58168983 11.3803907 0.4375 8.4375 C0.39431641 7.63119141 0.35113281 6.82488281 0.30664062 5.99414062 C0.20024738 3.99631195 0.09959112 1.9981793 0 0 Z " fill="#35A065" transform="translate(87,48)"/>
<path d="M0 0 C3.5 0.125 3.5 0.125 4.5 1.125 C4.54092937 3.45797433 4.54241723 5.79205225 4.5 8.125 C-1.65234375 8.22265625 -1.65234375 8.22265625 -3.5 8.125 C-4.5 7.125 -4.5 7.125 -4.625 4.125 C-4.44582419 -0.1752195 -4.39475968 0.1569557 0 0 Z " fill="#FDFEFD" transform="translate(125.5,186.875)"/>
<path d="M0 0 C2.64 0 5.28 0 8 0 C8 2.64 8 5.28 8 8 C5.36 8 2.72 8 0 8 C0 5.36 0 2.72 0 0 Z " fill="#FEFEFC" transform="translate(242,14)"/>
<path d="M0 0 C2.33294775 -0.04241723 4.66702567 -0.04092937 7 0 C8 1 8 1 8.0625 4.5625 C8.041875 5.696875 8.02125 6.83125 8 8 C5.36 8 2.72 8 0 8 C0 5.36 0 2.72 0 0 Z " fill="#FCFCFB" transform="translate(242,142)"/>
<path d="M0 0 C2.64 0 5.28 0 8 0 C8 2.64 8 5.28 8 8 C5.66705225 8.04241723 3.33297433 8.04092937 1 8 C0 7 0 7 -0.0625 3.4375 C-0.041875 2.303125 -0.02125 1.16875 0 0 Z " fill="#FEFEFD" transform="translate(1,52)"/>
<path d="M0 0 C2.33294775 -0.04241723 4.66702567 -0.04092937 7 0 C8 1 8 1 8.0625 4.5625 C8.041875 5.696875 8.02125 6.83125 8 8 C5.66705225 8.04241723 3.33297433 8.04092937 1 8 C0 7 0 7 -0.0625 3.4375 C-0.041875 2.303125 -0.02125 1.16875 0 0 Z " fill="#FCFCFB" transform="translate(9,180)"/>
<path d="M0 0 C2.33294775 -0.04241723 4.66702567 -0.04092937 7 0 C8 1 8 1 8.125 4 C8 7 8 7 7 8 C4.66702567 8.04092937 2.33294775 8.04241723 0 8 C0 5.36 0 2.72 0 0 Z " fill="#FCFCFB" transform="translate(227,142)"/>
<path d="M0 0 C2.33294775 -0.04241723 4.66702567 -0.04092937 7 0 C8 1 8 1 8.125 4 C8 7 8 7 7 8 C4.66702567 8.04092937 2.33294775 8.04241723 0 8 C0 5.36 0 2.72 0 0 Z " fill="#FCFCFB" transform="translate(137,142)"/>
<path d="M0 0 C2.33294775 -0.04241723 4.66702567 -0.04092937 7 0 C8 1 8 1 8.0625 4.5625 C8.041875 5.696875 8.02125 6.83125 8 8 C5.66705225 8.04241723 3.33297433 8.04092937 1 8 C0 7 0 7 -0.0625 3.4375 C-0.041875 2.303125 -0.02125 1.16875 0 0 Z " fill="#FCFDFC" transform="translate(137,127)"/>
<path d="M0 0 C2.33294775 -0.04241723 4.66702567 -0.04092937 7 0 C8 1 8 1 8.125 4 C8 7 8 7 7 8 C4 8.125 4 8.125 1 8 C0 7 0 7 -0.0625 3.4375 C-0.041875 2.303125 -0.02125 1.16875 0 0 Z " fill="#FCFCFB" transform="translate(84,225)"/>
<path d="M0 0 C2.33294775 -0.04241723 4.66702567 -0.04092937 7 0 C8 1 8 1 8.125 4 C8 7 8 7 7 8 C4 8.125 4 8.125 1 8 C0 7 0 7 -0.0625 3.4375 C-0.041875 2.303125 -0.02125 1.16875 0 0 Z " fill="#FCFCFC" transform="translate(114,180)"/>
<path d="M0 0 C2.31 0 4.62 0 7 0 C7.38063221 2.3260857 7.71269945 4.66055264 8 7 C7 8 7 8 3.4375 8.0625 C2.303125 8.041875 1.16875 8.02125 0 8 C0 5.36 0 2.72 0 0 Z " fill="#FCFCFC" transform="translate(197,142)"/>
<path d="M0 0 C2.33294775 -0.04241723 4.66702567 -0.04092937 7 0 C8 1 8 1 8.125 4 C8 7 8 7 7 8 C4 8.125 4 8.125 1 8 C0 7 0 7 -0.0625 3.4375 C-0.041875 2.303125 -0.02125 1.16875 0 0 Z " fill="#FCFCFB" transform="translate(242,127)"/>
<path d="M0 0 C2.33294775 -0.04241723 4.66702567 -0.04092937 7 0 C8 1 8 1 8.125 4 C8 7 8 7 7 8 C4 8.125 4 8.125 1 8 C0 7 0 7 -0.0625 3.4375 C-0.041875 2.303125 -0.02125 1.16875 0 0 Z " fill="#FDFDFC" transform="translate(227,127)"/>
<path d="M0 0 C2.33294775 -0.04241723 4.66702567 -0.04092937 7 0 C8 1 8 1 8.125 4 C8 7 8 7 7 8 C4 8.125 4 8.125 1 8 C0 7 0 7 -0.0625 3.4375 C-0.041875 2.303125 -0.02125 1.16875 0 0 Z " fill="#FBFCFB" transform="translate(212,127)"/>
<path d="M0 0 C2.33294775 -0.04241723 4.66702567 -0.04092937 7 0 C8 1 8 1 8.125 4 C8 7 8 7 7 8 C4 8.125 4 8.125 1 8 C0 7 0 7 -0.0625 3.4375 C-0.041875 2.303125 -0.02125 1.16875 0 0 Z " fill="#FCFCFA" transform="translate(152,127)"/>
<path d="M0 0 C3 0.125 3 0.125 4 1.125 C4.04092937 3.45797433 4.04241723 5.79205225 4 8.125 C1.66705225 8.16741723 -0.66702567 8.16592937 -3 8.125 C-4 7.125 -4 7.125 -4.125 4.125 C-3.96 0.165 -3.96 0.165 0 0 Z " fill="#FCFCFB" transform="translate(231,111.875)"/>
<path d="M0 0 C2.33294775 -0.04241723 4.66702567 -0.04092937 7 0 C8 1 8 1 8.125 4 C8 7 8 7 7 8 C4 8.125 4 8.125 1 8 C0 7 0 7 -0.0625 3.4375 C-0.041875 2.303125 -0.02125 1.16875 0 0 Z " fill="#FCFCFB" transform="translate(114,82)"/>
<path d="M0 0 C2.33294775 -0.04241723 4.66702567 -0.04092937 7 0 C8 1 8 1 8.125 4 C8 7 8 7 7 8 C5.00041636 8.04080783 2.99954746 8.04254356 1 8 C-0.35439668 5.29120665 -0.06501451 2.99066732 0 0 Z " fill="#FCFCFC" transform="translate(99,210)"/>
<path d="M0 0 C2.33294775 -0.04241723 4.66702567 -0.04092937 7 0 C8 1 8 1 8.1875 3.4375 C8 6 8 6 6 8 C3.4375 8.1875 3.4375 8.1875 1 8 C0 7 0 7 -0.0625 3.4375 C-0.041875 2.303125 -0.02125 1.16875 0 0 Z " fill="#FBFCF9" transform="translate(9,210)"/>
<path d="M0 0 C2.33294775 -0.04241723 4.66702567 -0.04092937 7 0 C8 1 8 1 8.1875 3.4375 C8 6 8 6 6 8 C3.4375 8.1875 3.4375 8.1875 1 8 C0 7 0 7 -0.0625 3.4375 C-0.041875 2.303125 -0.02125 1.16875 0 0 Z " fill="#FCFCFB" transform="translate(9,195)"/>
<path d="M0 0 C2.33294775 -0.04241723 4.66702567 -0.04092937 7 0 C8 1 8 1 8.1875 3.4375 C8 6 8 6 6 8 C3.4375 8.1875 3.4375 8.1875 1 8 C0 7 0 7 -0.0625 3.4375 C-0.041875 2.303125 -0.02125 1.16875 0 0 Z " fill="#FDFCFB" transform="translate(9,165)"/>
<path d="M0 0 C2.64 0 5.28 0 8 0 C8 2.31 8 4.62 8 7 C5.36 7 2.72 7 0 7 C0 4.69 0 2.38 0 0 Z " fill="#FCFCFC" transform="translate(167,233)"/>
<path d="M0 0 C2.31 0 4.62 0 7 0 C7 2.64 7 5.28 7 8 C4.69 8 2.38 8 0 8 C0 5.36 0 2.72 0 0 Z " fill="#FCFCFB" transform="translate(175,225)"/>
<path d="M0 0 C2.31 0 4.62 0 7 0 C7 2.64 7 5.28 7 8 C4.69 8 2.38 8 0 8 C0 5.36 0 2.72 0 0 Z " fill="#FCFCFC" transform="translate(160,225)"/>
<path d="M0 0 C2.64 0 5.28 0 8 0 C8 2.31 8 4.62 8 7 C5.36 7 2.72 7 0 7 C0 4.69 0 2.38 0 0 Z " fill="#FCFCFC" transform="translate(182,218)"/>
<path d="M0 0 C2.64 0 5.28 0 8 0 C8 2.31 8 4.62 8 7 C5.36 7 2.72 7 0 7 C0 4.69 0 2.38 0 0 Z " fill="#FCFCFB" transform="translate(152,218)"/>
<path d="M0 0 C2.31 0 4.62 0 7 0 C7 2.64 7 5.28 7 8 C4.69 8 2.38 8 0 8 C0 5.36 0 2.72 0 0 Z " fill="#FCFCFB" transform="translate(190,210)"/>
<path d="M0 0 C2.31 0 4.62 0 7 0 C7 2.64 7 5.28 7 8 C4.69 8 2.38 8 0 8 C0 5.36 0 2.72 0 0 Z " fill="#FCFDFB" transform="translate(175,210)"/>
<path d="M0 0 C2.875 0.3125 2.875 0.3125 6 1 C6.66 1.99 7.32 2.98 8 4 C7.443125 4.2475 6.88625 4.495 6.3125 4.75 C3.60028873 6.21606015 1.36412635 8.02989471 -1 10 C-1.33 9.01 -1.66 8.02 -2 7 C-2.66 7 -3.32 7 -4 7 C-2.79618552 4.50638429 -1.54571278 2.31856917 0 0 Z " fill="#429D6C" transform="translate(81,203)"/>
<path d="M0 0 C2.64 0 5.28 0 8 0 C8 2.31 8 4.62 8 7 C5.36 7 2.72 7 0 7 C0 4.69 0 2.38 0 0 Z " fill="#FDFDFB" transform="translate(182,203)"/>
<path d="M0 0 C2.64 0 5.28 0 8 0 C8 2.31 8 4.62 8 7 C5.36 7 2.72 7 0 7 C0 4.69 0 2.38 0 0 Z " fill="#FCFCFB" transform="translate(167,203)"/>
<path d="M0 0 C2.31 0 4.62 0 7 0 C7 2.64 7 5.28 7 8 C4.69 8 2.38 8 0 8 C0 5.36 0 2.72 0 0 Z " fill="#FCFCFB" transform="translate(205,195)"/>
<path d="M0 0 C2.31 0 4.62 0 7 0 C7 2.64 7 5.28 7 8 C4.69 8 2.38 8 0 8 C0 5.36 0 2.72 0 0 Z " fill="#FCFCFB" transform="translate(190,195)"/>
<path d="M0 0 C2.31 0 4.62 0 7 0 C7 2.64 7 5.28 7 8 C4.69 8 2.38 8 0 8 C0 5.36 0 2.72 0 0 Z " fill="#FCFCFB" transform="translate(160,195)"/>
<path d="M0 0 C2.31 0 4.62 0 7 0 C7 2.64 7 5.28 7 8 C4.69 8 2.38 8 0 8 C0 5.36 0 2.72 0 0 Z " fill="#FCFCFB" transform="translate(145,195)"/>
<path d="M0 0 C2.64 0 5.28 0 8 0 C8 2.31 8 4.62 8 7 C5.36 7 2.72 7 0 7 C0 4.69 0 2.38 0 0 Z " fill="#FDFCFB" transform="translate(242,188)"/>
<path d="M0 0 C0.04241723 2.33294775 0.04092937 4.66702567 0 7 C-1 8 -1 8 -4.5625 8.0625 C-5.696875 8.041875 -6.83125 8.02125 -8 8 C-8 5.69 -8 3.38 -8 1 C-1.125 0 -1.125 0 0 0 Z " fill="#FCFCFB" transform="translate(235,187)"/>
<path d="M0 0 C2.64 0 5.28 0 8 0 C8 2.31 8 4.62 8 7 C5.36 7 2.72 7 0 7 C0 4.69 0 2.38 0 0 Z " fill="#FCFCFC" transform="translate(197,188)"/>
<path d="M0 0 C2.64 0 5.28 0 8 0 C8 2.31 8 4.62 8 7 C5.36 7 2.72 7 0 7 C0 4.69 0 2.38 0 0 Z " fill="#FCFCFB" transform="translate(167,188)"/>
<path d="M0 0 C2.31 0 4.62 0 7 0 C7 2.64 7 5.28 7 8 C4.69 8 2.38 8 0 8 C0 5.36 0 2.72 0 0 Z " fill="#FCFCFB" transform="translate(220,180)"/>
<path d="M0 0 C2.31 0 4.62 0 7 0 C7 2.64 7 5.28 7 8 C4.69 8 2.38 8 0 8 C0 5.36 0 2.72 0 0 Z " fill="#FCFCFB" transform="translate(190,180)"/>
<path d="M0 0 C2.31 0 4.62 0 7 0 C7 2.64 7 5.28 7 8 C4.69 8 2.38 8 0 8 C0 5.36 0 2.72 0 0 Z " fill="#FCFCFB" transform="translate(160,180)"/>
<path d="M0 0 C2.31 0 4.62 0 7 0 C7 2.64 7 5.28 7 8 C4.69 8 2.38 8 0 8 C0 5.36 0 2.72 0 0 Z " fill="#FDFDFC" transform="translate(175,165)"/>
<path d="M0 0 C2.33294775 -0.04241723 4.66702567 -0.04092937 7 0 C8 1 8 1 8.0625 4.0625 C8.041875 5.031875 8.02125 6.00125 8 7 C5.13822943 8.43088528 3.06624227 7.59991697 0 7 C0 4.69 0 2.38 0 0 Z " fill="#FDFDFC" transform="translate(69,165)"/>
<path d="M0 0 C2.31 0 4.62 0 7 0 C7 2.64 7 5.28 7 8 C4.69 8 2.38 8 0 8 C0 5.36 0 2.72 0 0 Z " fill="#FCFCFB" transform="translate(17,142)"/>
<path d="M0 0 C2.64 0 5.28 0 8 0 C8 2.31 8 4.62 8 7 C5.36 7 2.72 7 0 7 C0 4.69 0 2.38 0 0 Z " fill="#FCFCFB" transform="translate(122,128)"/>
<path d="M0 0 C2.31 0 4.62 0 7 0 C7 2.64 7 5.28 7 8 C4.69 8 2.38 8 0 8 C0 5.36 0 2.72 0 0 Z " fill="#FDFDFC" transform="translate(17,127)"/>
<path d="M0 0 C2.31 0 4.62 0 7 0 C7 2.64 7 5.28 7 8 C4.69 8 2.38 8 0 8 C0 5.36 0 2.72 0 0 Z " fill="#FCFCFB" transform="translate(160,97)"/>
<path d="M0 0 C2.31 0 4.62 0 7 0 C7 2.64 7 5.28 7 8 C4.69 8 2.38 8 0 8 C0 5.36 0 2.72 0 0 Z " fill="#FCFCFB" transform="translate(145,97)"/>
<path d="M0 0 C2.64 0 5.28 0 8 0 C8 2.31 8 4.62 8 7 C5.36 7 2.72 7 0 7 C0 4.69 0 2.38 0 0 Z " fill="#F9FBF8" transform="translate(197,90)"/>
<path d="M0 0 C2.64 0 5.28 0 8 0 C8 2.31 8 4.62 8 7 C5.36 7 2.72 7 0 7 C0 4.69 0 2.38 0 0 Z " fill="#FDFDFC" transform="translate(167,90)"/>
<path d="M0 0 C2.64 0 5.28 0 8 0 C8 2.31 8 4.62 8 7 C5.36 7 2.72 7 0 7 C0 4.69 0 2.38 0 0 Z " fill="#FCFCFA" transform="translate(122,90)"/>
<path d="M0 0 C2.31 0 4.62 0 7 0 C7 2.64 7 5.28 7 8 C4.69 8 2.38 8 0 8 C0 5.36 0 2.72 0 0 Z " fill="#FDFDFB" transform="translate(130,82)"/>
<path d="M0 0 C2.31 0 4.62 0 7 0 C7 2.64 7 5.28 7 8 C4.69 8 2.38 8 0 8 C0 5.36 0 2.72 0 0 Z " fill="#FDFDFB" transform="translate(17,82)"/>
<path d="M0 0 C2.64 0 5.28 0 8 0 C8 2.31 8 4.62 8 7 C5.36 7 2.72 7 0 7 C0 4.69 0 2.38 0 0 Z " fill="#FDFDFC" transform="translate(182,75)"/>
<path d="M0 0 C2.64 0 5.28 0 8 0 C8 2.31 8 4.62 8 7 C5.36 7 2.72 7 0 7 C0 4.69 0 2.38 0 0 Z " fill="#FDFDFB" transform="translate(137,75)"/>
<path d="M0 0 C2.64 0 5.28 0 8 0 C8 2.31 8 4.62 8 7 C5.36 7 2.72 7 0 7 C0 4.69 0 2.38 0 0 Z " fill="#FBFCFA" transform="translate(9,75)"/>
<path d="M0 0 C2.31 0 4.62 0 7 0 C7 2.64 7 5.28 7 8 C4.69 8 2.38 8 0 8 C0 5.36 0 2.72 0 0 Z " fill="#FDFDFC" transform="translate(175,67)"/>
<path d="M0 0 C2.31 0 4.62 0 7 0 C7 2.64 7 5.28 7 8 C4.69 8 2.38 8 0 8 C0 5.36 0 2.72 0 0 Z " fill="#FDFDFC" transform="translate(145,67)"/>
<path d="M0 0 C2.64 0 5.28 0 8 0 C8 2.31 8 4.62 8 7 C5.36 7 2.72 7 0 7 C0 4.69 0 2.38 0 0 Z " fill="#FCFDFB" transform="translate(167,60)"/>
<path d="M0 0 C2.64 0 5.28 0 8 0 C8 2.31 8 4.62 8 7 C5.36 7 2.72 7 0 7 C0 4.69 0 2.38 0 0 Z " fill="#FDFDFC" transform="translate(212,45)"/>
<path d="M0 0 C2.64 0 5.28 0 8 0 C8 2.31 8 4.62 8 7 C5.36 7 2.72 7 0 7 C0 4.69 0 2.38 0 0 Z " fill="#FDFDFC" transform="translate(167,45)"/>
<path d="M0 0 C2.64 0 5.28 0 8 0 C8.04254356 1.99954746 8.04080783 4.00041636 8 6 C7 7 7 7 3.4375 7.0625 C2.303125 7.041875 1.16875 7.02125 0 7 C0 4.69 0 2.38 0 0 Z " fill="#FCFCFC" transform="translate(212,233)"/>
<path d="M0 0 C2.64 0 5.28 0 8 0 C8.04254356 1.99954746 8.04080783 4.00041636 8 6 C7 7 7 7 3.4375 7.0625 C2.303125 7.041875 1.16875 7.02125 0 7 C0 4.69 0 2.38 0 0 Z " fill="#FCFCFB" transform="translate(197,233)"/>
<path d="M0 0 C2.33294775 -0.04241723 4.66702567 -0.04092937 7 0 C8 1 8 1 8.0625 4.0625 C8.041875 5.031875 8.02125 6.00125 8 7 C5.36 7 2.72 7 0 7 C0 4.69 0 2.38 0 0 Z " fill="#FCFCFC" transform="translate(137,233)"/>
<path d="M0 0 C2.31 0 4.62 0 7 0 C7.04241723 2.33294775 7.04092937 4.66702567 7 7 C6 8 6 8 2.9375 8.0625 C1.968125 8.041875 0.99875 8.02125 0 8 C0 5.36 0 2.72 0 0 Z " fill="#FCFCFB" transform="translate(220,225)"/>
<path d="M0 0 C2.31 0 4.62 0 7 0 C7.04241723 2.33294775 7.04092937 4.66702567 7 7 C6 8 6 8 2.9375 8.0625 C1.968125 8.041875 0.99875 8.02125 0 8 C0 5.36 0 2.72 0 0 Z " fill="#FCFCFB" transform="translate(205,225)"/>
<path d="M0 0 C2.31 0 4.62 0 7 0 C7.04241723 2.33294775 7.04092937 4.66702567 7 7 C6 8 6 8 2.9375 8.0625 C1.968125 8.041875 0.99875 8.02125 0 8 C0 5.36 0 2.72 0 0 Z " fill="#FCFCFB" transform="translate(145,225)"/>
<path d="M0 0 C2.64 0 5.28 0 8 0 C8.04254356 1.99954746 8.04080783 4.00041636 8 6 C7 7 7 7 3.4375 7.0625 C2.303125 7.041875 1.16875 7.02125 0 7 C0 4.69 0 2.38 0 0 Z " fill="#FCFCFB" transform="translate(242,218)"/>
<path d="M0 0 C2.64 0 5.28 0 8 0 C8.04254356 1.99954746 8.04080783 4.00041636 8 6 C7 7 7 7 3.4375 7.0625 C2.303125 7.041875 1.16875 7.02125 0 7 C0 4.69 0 2.38 0 0 Z " fill="#FDFDFC" transform="translate(227,218)"/>
<path d="M0 0 C2.64 0 5.28 0 8 0 C8.04254356 1.99954746 8.04080783 4.00041636 8 6 C7 7 7 7 3.4375 7.0625 C2.303125 7.041875 1.16875 7.02125 0 7 C0 4.69 0 2.38 0 0 Z " fill="#FCFCFC" transform="translate(212,218)"/>
<path d="M0 0 C2.33294775 -0.04241723 4.66702567 -0.04092937 7 0 C8 1 8 1 8.0625 4.0625 C8.041875 5.031875 8.02125 6.00125 8 7 C5.36 7 2.72 7 0 7 C0 4.69 0 2.38 0 0 Z " fill="#FCFCFB" transform="translate(167,218)"/>
<path d="M0 0 C2.33294775 -0.04241723 4.66702567 -0.04092937 7 0 C8 1 8 1 8.0625 4.0625 C8.041875 5.031875 8.02125 6.00125 8 7 C5.36 7 2.72 7 0 7 C0 4.69 0 2.38 0 0 Z " fill="#FDFDFD" transform="translate(137,218)"/>
<path d="M0 0 C2.31 0 4.62 0 7 0 C7 2.64 7 5.28 7 8 C5.00045254 8.04254356 2.99958364 8.04080783 1 8 C0 7 0 7 -0.0625 3.4375 C-0.041875 2.303125 -0.02125 1.16875 0 0 Z " fill="#FCFDFC" transform="translate(235,210)"/>
<path d="M0 0 C2.31 0 4.62 0 7 0 C7.04241723 2.33294775 7.04092937 4.66702567 7 7 C6 8 6 8 2.9375 8.0625 C1.968125 8.041875 0.99875 8.02125 0 8 C0 5.36 0 2.72 0 0 Z " fill="#FDFDFC" transform="translate(205,210)"/>
<path d="M0 0 C2.31 0 4.62 0 7 0 C7.04241723 2.33294775 7.04092937 4.66702567 7 7 C6 8 6 8 2.9375 8.0625 C1.968125 8.041875 0.99875 8.02125 0 8 C0 5.36 0 2.72 0 0 Z " fill="#FCFCFB" transform="translate(160,210)"/>
<path d="M0 0 C2.64 0 5.28 0 8 0 C8.04254356 1.99954746 8.04080783 4.00041636 8 6 C7 7 7 7 3.4375 7.0625 C2.303125 7.041875 1.16875 7.02125 0 7 C0 4.69 0 2.38 0 0 Z " fill="#FCFCFB" transform="translate(242,203)"/>
<path d="M0 0 C2.64 0 5.28 0 8 0 C8.04254356 1.99954746 8.04080783 4.00041636 8 6 C7 7 7 7 3.4375 7.0625 C2.303125 7.041875 1.16875 7.02125 0 7 C0 4.69 0 2.38 0 0 Z " fill="#FCFCFB" transform="translate(227,203)"/>
<path d="M0 0 C2.64 0 5.28 0 8 0 C8.04254356 1.99954746 8.04080783 4.00041636 8 6 C7 7 7 7 3.4375 7.0625 C2.303125 7.041875 1.16875 7.02125 0 7 C0 4.69 0 2.38 0 0 Z " fill="#FCFCFB" transform="translate(212,203)"/>
<path d="M0 0 C2.64 0 5.28 0 8 0 C8.04254356 1.99954746 8.04080783 4.00041636 8 6 C7 7 7 7 3.4375 7.0625 C2.303125 7.041875 1.16875 7.02125 0 7 C0 4.69 0 2.38 0 0 Z " fill="#FCFCFB" transform="translate(137,203)"/>
<path d="M0 0 C2.31 0 4.62 0 7 0 C7.04241723 2.33294775 7.04092937 4.66702567 7 7 C6 8 6 8 2.9375 8.0625 C1.968125 8.041875 0.99875 8.02125 0 8 C0 5.36 0 2.72 0 0 Z " fill="#FCFCFB" transform="translate(220,195)"/>
<path d="M0 0 C2.31 0 4.62 0 7 0 C7.04241723 2.33294775 7.04092937 4.66702567 7 7 C6 8 6 8 2.9375 8.0625 C1.968125 8.041875 0.99875 8.02125 0 8 C0 5.36 0 2.72 0 0 Z " fill="#FCFCFA" transform="translate(175,195)"/>
<path d="M0 0 C2.64 0 5.28 0 8 0 C8.04254356 1.99954746 8.04080783 4.00041636 8 6 C7 7 7 7 3.4375 7.0625 C2.303125 7.041875 1.16875 7.02125 0 7 C0 4.69 0 2.38 0 0 Z " fill="#FCFCFB" transform="translate(212,188)"/>
<path d="M0 0 C2.64 0 5.28 0 8 0 C8.04254356 1.99954746 8.04080783 4.00041636 8 6 C7 7 7 7 3.4375 7.0625 C2.303125 7.041875 1.16875 7.02125 0 7 C0 4.69 0 2.38 0 0 Z " fill="#FCFCFB" transform="translate(182,188)"/>
<path d="M0 0 C2.31 0 4.62 0 7 0 C7 2.64 7 5.28 7 8 C5.00045254 8.04254356 2.99958364 8.04080783 1 8 C0 7 0 7 -0.0625 3.4375 C-0.041875 2.303125 -0.02125 1.16875 0 0 Z " fill="#FCFCFB" transform="translate(235,180)"/>
<path d="M0 0 C2.31 0 4.62 0 7 0 C7 2.64 7 5.28 7 8 C5.00045254 8.04254356 2.99958364 8.04080783 1 8 C0 7 0 7 -0.0625 3.4375 C-0.041875 2.303125 -0.02125 1.16875 0 0 Z " fill="#FCFCFB" transform="translate(205,180)"/>
<path d="M0 0 C2.64 0 5.28 0 8 0 C8.04254356 1.99954746 8.04080783 4.00041636 8 6 C7 7 7 7 3.4375 7.0625 C2.303125 7.041875 1.16875 7.02125 0 7 C0 4.69 0 2.38 0 0 Z " fill="#FCFCFC" transform="translate(167,173)"/>
<path d="M0 0 C2.31 0 4.62 0 7 0 C7 2.64 7 5.28 7 8 C5.00045254 8.04254356 2.99958364 8.04080783 1 8 C0 7 0 7 -0.0625 3.4375 C-0.041875 2.303125 -0.02125 1.16875 0 0 Z " fill="#FCFCFB" transform="translate(235,165)"/>
<path d="M0 0 C2.31 0 4.62 0 7 0 C7 2.64 7 5.28 7 8 C5.00045254 8.04254356 2.99958364 8.04080783 1 8 C0 7 0 7 -0.0625 3.4375 C-0.041875 2.303125 -0.02125 1.16875 0 0 Z " fill="#FCFCFB" transform="translate(220,165)"/>
<path d="M0 0 C2.31 0 4.62 0 7 0 C7 2.64 7 5.28 7 8 C5.00045254 8.04254356 2.99958364 8.04080783 1 8 C0 7 0 7 -0.0625 3.4375 C-0.041875 2.303125 -0.02125 1.16875 0 0 Z " fill="#FCFCFB" transform="translate(190,165)"/>
<path d="M0 0 C2.64 0 5.28 0 8 0 C8.04254356 1.99954746 8.04080783 4.00041636 8 6 C7 7 7 7 3.4375 7.0625 C2.303125 7.041875 1.16875 7.02125 0 7 C0 4.69 0 2.38 0 0 Z " fill="#FCFCFA" transform="translate(227,158)"/>
<path d="M0 0 C2.64 0 5.28 0 8 0 C8.04254356 1.99954746 8.04080783 4.00041636 8 6 C7 7 7 7 3.4375 7.0625 C2.303125 7.041875 1.16875 7.02125 0 7 C0 4.69 0 2.38 0 0 Z " fill="#FCFCFB" transform="translate(197,158)"/>
<path d="M0 0 C2.31 0 4.62 0 7 0 C7 2.64 7 5.28 7 8 C5.00045254 8.04254356 2.99958364 8.04080783 1 8 C0 7 0 7 -0.0625 3.4375 C-0.041875 2.303125 -0.02125 1.16875 0 0 Z " fill="#FCFCFC" transform="translate(190,150)"/>
<path d="M0 0 C2.33294775 -0.04241723 4.66702567 -0.04092937 7 0 C8 1 8 1 8.0625 4.0625 C8.041875 5.031875 8.02125 6.00125 8 7 C5.36 7 2.72 7 0 7 C0 4.69 0 2.38 0 0 Z " fill="#FCFCFC" transform="translate(9,135)"/>
<path d="M0 0 C2.31 0 4.62 0 7 0 C7.04241723 2.33294775 7.04092937 4.66702567 7 7 C6 8 6 8 2.9375 8.0625 C1.968125 8.041875 0.99875 8.02125 0 8 C0 5.36 0 2.72 0 0 Z " fill="#FBFCFB" transform="translate(107,127)"/>
<path d="M0 0 C2.64 0 5.28 0 8 0 C8.04254356 1.99954746 8.04080783 4.00041636 8 6 C7 7 7 7 3.4375 7.0625 C2.303125 7.041875 1.16875 7.02125 0 7 C0 4.69 0 2.38 0 0 Z " fill="#FBFBFA" transform="translate(54,105)"/>
<path d="M0 0 C2.31 0 4.62 0 7 0 C7.04241723 2.33294775 7.04092937 4.66702567 7 7 C6 8 6 8 2.9375 8.0625 C1.968125 8.041875 0.99875 8.02125 0 8 C0 5.36 0 2.72 0 0 Z " fill="#FCFCFB" transform="translate(190,97)"/>
<path d="M0 0 C2.31 0 4.62 0 7 0 C7.04241723 2.33294775 7.04092937 4.66702567 7 7 C6 8 6 8 2.9375 8.0625 C1.968125 8.041875 0.99875 8.02125 0 8 C0 5.36 0 2.72 0 0 Z " fill="#FDFDFC" transform="translate(175,97)"/>
<path d="M0 0 C2.31 0 4.62 0 7 0 C7.04241723 2.33294775 7.04092937 4.66702567 7 7 C6 8 6 8 2.9375 8.0625 C1.968125 8.041875 0.99875 8.02125 0 8 C0 5.36 0 2.72 0 0 Z " fill="#FCFDFB" transform="translate(130,97)"/>
<path d="M0 0 C2.64 0 5.28 0 8 0 C8.04254356 1.99954746 8.04080783 4.00041636 8 6 C7 7 7 7 3.4375 7.0625 C2.303125 7.041875 1.16875 7.02125 0 7 C0 4.69 0 2.38 0 0 Z " fill="#FDFCFB" transform="translate(182,90)"/>
<path d="M0 0 C2.33294775 -0.04241723 4.66702567 -0.04092937 7 0 C8 1 8 1 8.0625 4.0625 C8.041875 5.031875 8.02125 6.00125 8 7 C5.36 7 2.72 7 0 7 C0 4.69 0 2.38 0 0 Z " fill="#FCFCFA" transform="translate(137,90)"/>
<path d="M0 0 C2.33294775 -0.04241723 4.66702567 -0.04092937 7 0 C8 1 8 1 8.0625 4.0625 C8.041875 5.031875 8.02125 6.00125 8 7 C5.36 7 2.72 7 0 7 C0 4.69 0 2.38 0 0 Z " fill="#FDFDFC" transform="translate(9,90)"/>
<path d="M0 0 C2.31 0 4.62 0 7 0 C7 2.64 7 5.28 7 8 C5.00045254 8.04254356 2.99958364 8.04080783 1 8 C0 7 0 7 -0.0625 3.4375 C-0.041875 2.303125 -0.02125 1.16875 0 0 Z " fill="#FDFDFB" transform="translate(190,82)"/>
<path d="M0 0 C2.31 0 4.62 0 7 0 C7.04241723 2.33294775 7.04092937 4.66702567 7 7 C6 8 6 8 2.9375 8.0625 C1.968125 8.041875 0.99875 8.02125 0 8 C0 5.36 0 2.72 0 0 Z " fill="#FDFDFC" transform="translate(175,82)"/>
<path d="M0 0 C2.31 0 4.62 0 7 0 C7.04241723 2.33294775 7.04092937 4.66702567 7 7 C6 8 6 8 2.9375 8.0625 C1.968125 8.041875 0.99875 8.02125 0 8 C0 5.36 0 2.72 0 0 Z " fill="#FCFCFB" transform="translate(145,82)"/>
<path d="M0 0 C2.31 0 4.62 0 7 0 C7.04241723 2.33294775 7.04092937 4.66702567 7 7 C6 8 6 8 2.9375 8.0625 C1.968125 8.041875 0.99875 8.02125 0 8 C0 5.36 0 2.72 0 0 Z " fill="#FCFCFB" transform="translate(32,82)"/>
<path d="M0 0 C2.64 0 5.28 0 8 0 C8 2.31 8 4.62 8 7 C5.66705225 7.04241723 3.33297433 7.04092937 1 7 C0 6 0 6 -0.0625 2.9375 C-0.041875 1.968125 -0.02125 0.99875 0 0 Z " fill="#FDFDFC" transform="translate(167,75)"/>
<path d="M0 0 C2.33294775 -0.04241723 4.66702567 -0.04092937 7 0 C8 1 8 1 8.0625 4.0625 C8.041875 5.031875 8.02125 6.00125 8 7 C5.36 7 2.72 7 0 7 C0 4.69 0 2.38 0 0 Z " fill="#FBFDFA" transform="translate(24,75)"/>
<path d="M0 0 C2.31 0 4.62 0 7 0 C7.04241723 2.33294775 7.04092937 4.66702567 7 7 C6 8 6 8 2.9375 8.0625 C1.968125 8.041875 0.99875 8.02125 0 8 C0 5.36 0 2.72 0 0 Z " fill="#FDFDFC" transform="translate(190,67)"/>
<path d="M0 0 C2.31 0 4.62 0 7 0 C7.04241723 2.33294775 7.04092937 4.66702567 7 7 C6 8 6 8 2.9375 8.0625 C1.968125 8.041875 0.99875 8.02125 0 8 C0 5.36 0 2.72 0 0 Z " fill="#FDFDFC" transform="translate(160,67)"/>
<path d="M0 0 C2.64 0 5.28 0 8 0 C8.04254356 1.99954746 8.04080783 4.00041636 8 6 C7 7 7 7 3.4375 7.0625 C2.303125 7.041875 1.16875 7.02125 0 7 C0 4.69 0 2.38 0 0 Z " fill="#FDFCFB" transform="translate(212,60)"/>
<path d="M0 0 C2.64 0 5.28 0 8 0 C8.04254356 1.99954746 8.04080783 4.00041636 8 6 C7 7 7 7 3.4375 7.0625 C2.303125 7.041875 1.16875 7.02125 0 7 C0 4.69 0 2.38 0 0 Z " fill="#FDFDFC" transform="translate(197,60)"/>
<path d="M0 0 C2.64 0 5.28 0 8 0 C8.04254356 1.99954746 8.04080783 4.00041636 8 6 C7 7 7 7 3.4375 7.0625 C2.303125 7.041875 1.16875 7.02125 0 7 C0 4.69 0 2.38 0 0 Z " fill="#FDFDFB" transform="translate(182,60)"/>
<path d="M0 0 C2.31 0 4.62 0 7 0 C7 2.64 7 5.28 7 8 C5.00045254 8.04254356 2.99958364 8.04080783 1 8 C0 7 0 7 -0.0625 3.4375 C-0.041875 2.303125 -0.02125 1.16875 0 0 Z " fill="#FDFDFB" transform="translate(205,52)"/>
<path d="M0 0 C2.31 0 4.62 0 7 0 C7.04241723 2.33294775 7.04092937 4.66702567 7 7 C6 8 6 8 2.9375 8.0625 C1.968125 8.041875 0.99875 8.02125 0 8 C0 5.36 0 2.72 0 0 Z " fill="#FDFDFC" transform="translate(190,52)"/>
<path d="M0 0 C2.31 0 4.62 0 7 0 C7.04241723 2.33294775 7.04092937 4.66702567 7 7 C6 8 6 8 2.9375 8.0625 C1.968125 8.041875 0.99875 8.02125 0 8 C0 5.36 0 2.72 0 0 Z " fill="#FDFDFB" transform="translate(175,52)"/>
<path d="M0 0 C2.31 0 4.62 0 7 0 C7.04241723 2.33294775 7.04092937 4.66702567 7 7 C6 8 6 8 2.9375 8.0625 C1.968125 8.041875 0.99875 8.02125 0 8 C0 5.36 0 2.72 0 0 Z " fill="#FDFDFB" transform="translate(145,52)"/>
<path d="M0 0 C2.33294775 -0.04241723 4.66702567 -0.04092937 7 0 C8 1 8 1 8.0625 4.0625 C8.041875 5.031875 8.02125 6.00125 8 7 C5.36 7 2.72 7 0 7 C0 4.69 0 2.38 0 0 Z " fill="#FDFDFA" transform="translate(69,52)"/>
<path d="M0 0 C2.64 0 5.28 0 8 0 C8.04254356 1.99954746 8.04080783 4.00041636 8 6 C7 7 7 7 3.4375 7.0625 C2.303125 7.041875 1.16875 7.02125 0 7 C0 4.69 0 2.38 0 0 Z " fill="#FDFDFC" transform="translate(197,45)"/>
<path d="M0 0 C2.64 0 5.28 0 8 0 C8.04254356 1.99954746 8.04080783 4.00041636 8 6 C7 7 7 7 3.4375 7.0625 C2.303125 7.041875 1.16875 7.02125 0 7 C0 4.69 0 2.38 0 0 Z " fill="#FDFDFC" transform="translate(182,45)"/>
<path d="M0 0 C2.64 0 5.28 0 8 0 C8.04254356 1.99954746 8.04080783 4.00041636 8 6 C7 7 7 7 3.4375 7.0625 C2.303125 7.041875 1.16875 7.02125 0 7 C0 4.69 0 2.38 0 0 Z " fill="#FDFDFC" transform="translate(137,45)"/>
<path d="M0 0 C2.64 0 5.28 0 8 0 C8.04254356 1.99954746 8.04080783 4.00041636 8 6 C7 7 7 7 3.4375 7.0625 C2.303125 7.041875 1.16875 7.02125 0 7 C0 4.69 0 2.38 0 0 Z " fill="#FDFDFB" transform="translate(9,45)"/>
<path d="M0 0 C2.64 0 5.28 0 8 0 C8.04254356 1.99954746 8.04080783 4.00041636 8 6 C7 7 7 7 3.4375 7.0625 C2.303125 7.041875 1.16875 7.02125 0 7 C0 4.69 0 2.38 0 0 Z " fill="#FDFDFD" transform="translate(122,30)"/>
<path d="M0 0 C0.04254356 1.99954746 0.04080783 4.00041636 0 6 C-1 7 -1 7 -4 7.125 C-7 7 -7 7 -8 6 C-8.04080783 4.00041636 -8.04254356 1.99954746 -8 0 C-2.25 -1.125 -2.25 -1.125 0 0 Z " fill="#FDFDFB" transform="translate(235,15)"/>
<path d="M0 0 C2.64 0.33 5.28 0.66 8 1 C8.04254356 2.99954746 8.04080783 5.00041636 8 7 C7 8 7 8 4 8.125 C1 8 1 8 0 7 C-0.04092937 4.66702567 -0.04241723 2.33294775 0 0 Z " fill="#FDFDFC" transform="translate(167,14)"/>
<path d="M0 0 C2.33294775 -0.04241723 4.66702567 -0.04092937 7 0 C8 1 8 1 8.125 3.5 C8 6 8 6 7 7 C4.66702567 7.04092937 2.33294775 7.04241723 0 7 C0 4.69 0 2.38 0 0 Z " fill="#FCFCFB" transform="translate(242,233)"/>
<path d="M0 0 C2.33294775 -0.04241723 4.66702567 -0.04092937 7 0 C8 1 8 1 8.125 3.5 C8 6 8 6 7 7 C4.66702567 7.04092937 2.33294775 7.04241723 0 7 C0 4.69 0 2.38 0 0 Z " fill="#FCFCFB" transform="translate(227,233)"/>
<path d="M0 0 C2.33294775 -0.04241723 4.66702567 -0.04092937 7 0 C8 1 8 1 8.125 3.5 C8 6 8 6 7 7 C4.66702567 7.04092937 2.33294775 7.04241723 0 7 C0 4.69 0 2.38 0 0 Z " fill="#FDFDFC" transform="translate(182,233)"/>
<path d="M0 0 C2.31 0 4.62 0 7 0 C7.04241723 2.33294775 7.04092937 4.66702567 7 7 C6 8 6 8 3.5 8.125 C1 8 1 8 0 7 C-0.04092937 4.66702567 -0.04241723 2.33294775 0 0 Z " fill="#FCFCFB" transform="translate(235,225)"/>
<path d="M0 0 C2.31 0 4.62 0 7 0 C7.04241723 2.33294775 7.04092937 4.66702567 7 7 C6 8 6 8 2.9375 8.0625 C1.968125 8.041875 0.99875 8.02125 0 8 C0 5.36 0 2.72 0 0 Z " fill="#FCFCFB" transform="translate(190,225)"/>
<path d="M0 0 C1.99954746 -0.04254356 4.00041636 -0.04080783 6 0 C7 1 7 1 7.125 4 C7 7 7 7 6 8 C4.00041636 8.04080783 1.99954746 8.04254356 0 8 C0 5.36 0 2.72 0 0 Z " fill="#FCFCFC" transform="translate(130,225)"/>
<path d="M0 0 C2.64 0 5.28 0 8 0 C8.04254356 1.99954746 8.04080783 4.00041636 8 6 C7 7 7 7 4 7.125 C1 7 1 7 0 6 C-0.04080783 4.00041636 -0.04254356 1.99954746 0 0 Z " fill="#FCFCFC" transform="translate(197,218)"/>
<path d="M0 0 C2.31 0 4.62 0 7 0 C7.04241723 2.33294775 7.04092937 4.66702567 7 7 C6 8 6 8 3.5 8.125 C1 8 1 8 0 7 C-0.04092937 4.66702567 -0.04241723 2.33294775 0 0 Z " fill="#FDFDFC" transform="translate(220,210)"/>
<path d="M0 0 C1.99954746 -0.04254356 4.00041636 -0.04080783 6 0 C7 1 7 1 7.125 4 C7 7 7 7 6 8 C4.00041636 8.04080783 1.99954746 8.04254356 0 8 C0 5.36 0 2.72 0 0 Z " fill="#FCFCFB" transform="translate(130,210)"/>
<path d="M0 0 C2.64 0 5.28 0 8 0 C8 2.31 8 4.62 8 7 C5.36 7 2.72 7 0 7 C0 4.69 0 2.38 0 0 Z " fill="#FCFCFB" transform="translate(197,203)"/>
<path d="M0 0 C2.64 0 5.28 0 8 0 C8.04254356 1.99954746 8.04080783 4.00041636 8 6 C7 7 7 7 4 7.125 C1 7 1 7 0 6 C-0.04080783 4.00041636 -0.04254356 1.99954746 0 0 Z " fill="#FCFCFB" transform="translate(152,203)"/>
<path d="M0 0 C2.31 0 4.62 0 7 0 C7.04241723 2.33294775 7.04092937 4.66702567 7 7 C6 8 6 8 3.5 8.125 C1 8 1 8 0 7 C-0.04092937 4.66702567 -0.04241723 2.33294775 0 0 Z " fill="#FCFCFC" transform="translate(235,195)"/>
<path d="M0 0 C1.99954746 -0.04254356 4.00041636 -0.04080783 6 0 C7 1 7 1 7.125 4 C7 7 7 7 6 8 C4.00041636 8.04080783 1.99954746 8.04254356 0 8 C0 5.36 0 2.72 0 0 Z " fill="#FCFDFC" transform="translate(175,180)"/>
<path d="M0 0 C2.64 0 5.28 0 8 0 C8.04254356 1.99954746 8.04080783 4.00041636 8 6 C7 7 7 7 4 7.125 C1 7 1 7 0 6 C-0.04080783 4.00041636 -0.04254356 1.99954746 0 0 Z " fill="#FCFCFB" transform="translate(227,173)"/>
<path d="M0 0 C2.64 0 5.28 0 8 0 C8.04254356 1.99954746 8.04080783 4.00041636 8 6 C7 7 7 7 4 7.125 C1 7 1 7 0 6 C-0.04080783 4.00041636 -0.04254356 1.99954746 0 0 Z " fill="#FCFCFB" transform="translate(197,173)"/>
<path d="M0 0 C2.31 0 4.62 0 7 0 C7 2.64 7 5.28 7 8 C4.69 7.67 2.38 7.34 0 7 C0 4.69 0 2.38 0 0 Z " fill="#FCFCFB" transform="translate(235,150)"/>
<path d="M0 0 C2.31 0 4.62 0 7 0 C7.04241723 2.33294775 7.04092937 4.66702567 7 7 C6 8 6 8 3.5 8.125 C1 8 1 8 0 7 C-0.04092937 4.66702567 -0.04241723 2.33294775 0 0 Z " fill="#FDFDFC" transform="translate(205,150)"/>
<path d="M0 0 C1.99954746 -0.04254356 4.00041636 -0.04080783 6 0 C7 1 7 1 7.125 4 C7 7 7 7 6 8 C4.00041636 8.04080783 1.99954746 8.04254356 0 8 C0 5.36 0 2.72 0 0 Z " fill="#FCFCFC" transform="translate(2,142)"/>
<path d="M0 0 C2.33294775 -0.04241723 4.66702567 -0.04092937 7 0 C8 1 8 1 8.125 3.5 C8 6 8 6 7 7 C4.66702567 7.04092937 2.33294775 7.04241723 0 7 C0 4.69 0 2.38 0 0 Z " fill="#FCFCFC" transform="translate(24,135)"/>
<path d="M0 0 C1.99954746 -0.04254356 4.00041636 -0.04080783 6 0 C7 1 7 1 7.125 4 C7 7 7 7 6 8 C4.00041636 8.04080783 1.99954746 8.04254356 0 8 C0 5.36 0 2.72 0 0 Z " fill="#FDFDFB" transform="translate(2,97)"/>
<path d="M0 0 C1.99954746 -0.04254356 4.00041636 -0.04080783 6 0 C7 1 7 1 7.125 4 C7 7 7 7 6 8 C4.00041636 8.04080783 1.99954746 8.04254356 0 8 C0 5.36 0 2.72 0 0 Z " fill="#FDFDFC" transform="translate(160,82)"/>
<path d="M0 0 C1.99954746 -0.04254356 4.00041636 -0.04080783 6 0 C7 1 7 1 7.125 4 C7 7 7 7 6 8 C4.00041636 8.04080783 1.99954746 8.04254356 0 8 C0 5.36 0 2.72 0 0 Z " fill="#FDFDFD" transform="translate(2,82)"/>
<path d="M0 0 C2.33294775 -0.04241723 4.66702567 -0.04092937 7 0 C8 1 8 1 8.125 3.5 C8 6 8 6 7 7 C4.66702567 7.04092937 2.33294775 7.04241723 0 7 C0 4.69 0 2.38 0 0 Z " fill="#FCFDFC" transform="translate(122,75)"/>
<path d="M0 0 C2.31 0 4.62 0 7 0 C7.04241723 2.33294775 7.04092937 4.66702567 7 7 C6 8 6 8 3.5 8.125 C1 8 1 8 0 7 C-0.04092937 4.66702567 -0.04241723 2.33294775 0 0 Z " fill="#FDFDFC" transform="translate(220,52)"/>
<path d="M0 0 C2.31 0 4.62 0 7 0 C7.04241723 2.33294775 7.04092937 4.66702567 7 7 C6 8 6 8 3.5 8.125 C1 8 1 8 0 7 C-0.04092937 4.66702567 -0.04241723 2.33294775 0 0 Z " fill="#FDFDFC" transform="translate(160,52)"/>
<path d="M0 0 C1.99954746 -0.04254356 4.00041636 -0.04080783 6 0 C7 1 7 1 7.125 4 C7 7 7 7 6 8 C4.00041636 8.04080783 1.99954746 8.04254356 0 8 C0 5.36 0 2.72 0 0 Z " fill="#FCFCFB" transform="translate(130,52)"/>
<path d="M0 0 C2.33294775 -0.04241723 4.66702567 -0.04092937 7 0 C8 1 8 1 8.125 3.5 C8 6 8 6 7 7 C4.66702567 7.04092937 2.33294775 7.04241723 0 7 C0 4.69 0 2.38 0 0 Z " fill="#FDFDFB" transform="translate(114,37)"/>
<path d="M0 0 C2.64 0 5.28 0 8 0 C8.04254356 1.99954746 8.04080783 4.00041636 8 6 C7 7 7 7 4 7.125 C1 7 1 7 0 6 C-0.04080783 4.00041636 -0.04254356 1.99954746 0 0 Z " fill="#FDFDFC" transform="translate(227,30)"/>
<path d="M0 0 C2.64 0 5.28 0 8 0 C8.04254356 1.99954746 8.04080783 4.00041636 8 6 C7 7 7 7 4 7.125 C1 7 1 7 0 6 C-0.04080783 4.00041636 -0.04254356 1.99954746 0 0 Z " fill="#FDFDFC" transform="translate(212,30)"/>
<path d="M0 0 C2.64 0 5.28 0 8 0 C8.04254356 1.99954746 8.04080783 4.00041636 8 6 C7 7 7 7 4 7.125 C1 7 1 7 0 6 C-0.04080783 4.00041636 -0.04254356 1.99954746 0 0 Z " fill="#FDFDFC" transform="translate(197,30)"/>
<path d="M0 0 C2.64 0 5.28 0 8 0 C8.04254356 1.99954746 8.04080783 4.00041636 8 6 C7 7 7 7 4 7.125 C1 7 1 7 0 6 C-0.04080783 4.00041636 -0.04254356 1.99954746 0 0 Z " fill="#FDFDFC" transform="translate(182,30)"/>
<path d="M0 0 C2.64 0 5.28 0 8 0 C8.04254356 1.99954746 8.04080783 4.00041636 8 6 C7 7 7 7 4 7.125 C1 7 1 7 0 6 C-0.04080783 4.00041636 -0.04254356 1.99954746 0 0 Z " fill="#FDFDFC" transform="translate(167,30)"/>
<path d="M0 0 C2.64 0 5.28 0 8 0 C8.04254356 1.99954746 8.04080783 4.00041636 8 6 C7 7 7 7 4 7.125 C1 7 1 7 0 6 C-0.04080783 4.00041636 -0.04254356 1.99954746 0 0 Z " fill="#FDFDFC" transform="translate(9,30)"/>
<path d="M0 0 C2.33294775 -0.04241723 4.66702567 -0.04092937 7 0 C8 1 8 1 8.125 3.5 C8 6 8 6 7 7 C4.66702567 7.04092937 2.33294775 7.04241723 0 7 C0 4.69 0 2.38 0 0 Z " fill="#FDFDFC" transform="translate(39,22)"/>
<path d="M0 0 C2.33294775 -0.04241723 4.66702567 -0.04092937 7 0 C8 1 8 1 8.125 3.5 C8 6 8 6 7 7 C4.66702567 7.04092937 2.33294775 7.04241723 0 7 C0 4.69 0 2.38 0 0 Z " fill="#FDFDFC" transform="translate(24,22)"/>
<path d="M0 0 C2.64 0 5.28 0 8 0 C8.04254356 1.99954746 8.04080783 4.00041636 8 6 C7 7 7 7 4 7.125 C1 7 1 7 0 6 C-0.04080783 4.00041636 -0.04254356 1.99954746 0 0 Z " fill="#FDFDFC" transform="translate(212,15)"/>
<path d="M0 0 C2.64 0 5.28 0 8 0 C8.04254356 1.99954746 8.04080783 4.00041636 8 6 C7 7 7 7 4 7.125 C1 7 1 7 0 6 C-0.04080783 4.00041636 -0.04254356 1.99954746 0 0 Z " fill="#FDFDFD" transform="translate(197,15)"/>
<path d="M0 0 C2.64 0 5.28 0 8 0 C8.04254356 1.99954746 8.04080783 4.00041636 8 6 C7 7 7 7 4 7.125 C1 7 1 7 0 6 C-0.04080783 4.00041636 -0.04254356 1.99954746 0 0 Z " fill="#FDFDFC" transform="translate(182,15)"/>
<path d="M0 0 C2.64 0 5.28 0 8 0 C8.04254356 1.99954746 8.04080783 4.00041636 8 6 C7 7 7 7 4 7.125 C1 7 1 7 0 6 C-0.04080783 4.00041636 -0.04254356 1.99954746 0 0 Z " fill="#FDFDFC" transform="translate(137,15)"/>
<path d="M0 0 C2.64 0 5.28 0 8 0 C8.04254356 1.99954746 8.04080783 4.00041636 8 6 C7 7 7 7 4 7.125 C1 7 1 7 0 6 C-0.04080783 4.00041636 -0.04254356 1.99954746 0 0 Z " fill="#FDFDFC" transform="translate(122,15)"/>
<path d="M0 0 C2.33294775 -0.04241723 4.66702567 -0.04092937 7 0 C8 1 8 1 8.125 3.5 C8 6 8 6 7 7 C4 7.125 4 7.125 1 7 C0 6 0 6 -0.0625 2.9375 C-0.041875 1.968125 -0.02125 0.99875 0 0 Z " fill="#FDFCFC" transform="translate(84,240)"/>
<path d="M0 0 C2.33294775 -0.04241723 4.66702567 -0.04092937 7 0 C8 1 8 1 8.125 3.5 C8 6 8 6 7 7 C4 7.125 4 7.125 1 7 C0 6 0 6 -0.0625 2.9375 C-0.041875 1.968125 -0.02125 0.99875 0 0 Z " fill="#FDFDFC" transform="translate(69,240)"/>
<path d="M0 0 C2.33294775 -0.04241723 4.66702567 -0.04092937 7 0 C8 1 8 1 8.125 3.5 C8 6 8 6 7 7 C4 7.125 4 7.125 1 7 C0 6 0 6 -0.0625 2.9375 C-0.041875 1.968125 -0.02125 0.99875 0 0 Z " fill="#FCFCFB" transform="translate(54,240)"/>
<path d="M0 0 C2.33294775 -0.04241723 4.66702567 -0.04092937 7 0 C8 1 8 1 8.125 3.5 C8 6 8 6 7 7 C4 7.125 4 7.125 1 7 C0 6 0 6 -0.0625 2.9375 C-0.041875 1.968125 -0.02125 0.99875 0 0 Z " fill="#FDFDFC" transform="translate(182,173)"/>
<path d="M0 0 C2.31 0 4.62 0 7 0 C8.125 4.75 8.125 4.75 7 7 C4.69 7 2.38 7 0 7 C0 4.69 0 2.38 0 0 Z " fill="#FBFCFB" transform="translate(39,75)"/>
<path d="M0 0 C2.33294775 -0.04241723 4.66702567 -0.04092937 7 0 C8 1 8 1 8.125 3.5 C8 6 8 6 7 7 C4 7.125 4 7.125 1 7 C0 6 0 6 -0.0625 2.9375 C-0.041875 1.968125 -0.02125 0.99875 0 0 Z " fill="#FDFDFC" transform="translate(114,22)"/>
<path d="M0 0 C1.134375 0.020625 2.26875 0.04125 3.4375 0.0625 C3.4375 2.3725 3.4375 4.6825 3.4375 7.0625 C1.1275 7.0625 -1.1825 7.0625 -3.5625 7.0625 C-3.94383299 5.0710944 -4.27575582 3.06970923 -4.5625 1.0625 C-3.5625 0.0625 -3.5625 0.0625 0 0 Z " fill="#FCFCFB" transform="translate(5.5625,232.9375)"/>
<path d="M0 0 C2.31 0 4.62 0 7 0 C7.38133299 1.9914056 7.71325582 3.99279077 8 6 C7 7 7 7 3.4375 7.0625 C2.303125 7.041875 1.16875 7.02125 0 7 C0 4.69 0 2.38 0 0 Z " fill="#FCFCFB" transform="translate(122,203)"/>
<path d="M0 0 C2.31 0 4.62 0 7 0 C7.125 2.875 7.125 2.875 7 6 C6.34 6.66 5.68 7.32 5 8 C2.375 7.625 2.375 7.625 0 7 C0 4.69 0 2.38 0 0 Z " fill="#F8F9F7" transform="translate(47,142)"/>
<path d="M0 0 C2.31 0 4.62 0 7 0 C7 2.31 7 4.62 7 7 C4.69 7 2.38 7 0 7 C-1.04449911 3.86650268 -0.93423645 3.01031744 0 0 Z " fill="#F9FBF9" transform="translate(32,203)"/>
<path d="M0 0 C1.32 0 2.64 0 4 0 C3.67 1.32 3.34 2.64 3 4 C2.01 4 1.02 4 0 4 C0 6.64 0 9.28 0 12 C1.32 12 2.64 12 4 12 C4 13.32 4 14.64 4 16 C2.35 16 0.7 16 -1 16 C-1.83984517 10.68098062 -2.09161793 6.34892784 -1 1 C-0.67 0.67 -0.34 0.34 0 0 Z " fill="#84C29E" transform="translate(65,18)"/>
<path d="M0 0 C0 2.64 0 5.28 0 8 C-2.31 8 -4.62 8 -7 8 C-7 5.69 -7 3.38 -7 1 C-1.125 0 -1.125 0 0 0 Z " fill="#FCFDFB" transform="translate(84,232)"/>
<path d="M0 0 C0 2.64 0 5.28 0 8 C-2.31 8 -4.62 8 -7 8 C-7 5.69 -7 3.38 -7 1 C-1.125 0 -1.125 0 0 0 Z " fill="#FBFBFA" transform="translate(84,217)"/>
<path d="M0 0 C2.31 0 4.62 0 7 0 C7 2.31 7 4.62 7 7 C4.69 7 2.38 7 0 7 C-1.33332095 4.3333581 -0.67102033 2.83319697 0 0 Z " fill="#FBFBFA" transform="translate(92,203)"/>
<path d="M0 0 C0 2.64 0 5.28 0 8 C-2.31 8 -4.62 8 -7 8 C-7 5.69 -7 3.38 -7 1 C-1.125 0 -1.125 0 0 0 Z " fill="#FCFCFB" transform="translate(242,134)"/>
<path d="M0 0 C0 2.64 0 5.28 0 8 C-2.31 8 -4.62 8 -7 8 C-7 5.69 -7 3.38 -7 1 C-1.125 0 -1.125 0 0 0 Z " fill="#FDFCFC" transform="translate(227,134)"/>
<path d="M0 0 C0 2.64 0 5.28 0 8 C-2.31 8 -4.62 8 -7 8 C-7 5.69 -7 3.38 -7 1 C-1.125 0 -1.125 0 0 0 Z " fill="#FCFCFB" transform="translate(152,134)"/>
<path d="M0 0 C0 2.64 0 5.28 0 8 C-2.31 8 -4.62 8 -7 8 C-7 5.69 -7 3.38 -7 1 C-1.125 0 -1.125 0 0 0 Z " fill="#FDFDFC" transform="translate(227,119)"/>
<path d="M0 0 C1.134375 0.020625 2.26875 0.04125 3.4375 0.0625 C3.48004356 2.06204746 3.47830783 4.06291636 3.4375 6.0625 C2.4375 7.0625 2.4375 7.0625 -0.625 7.125 C-1.594375 7.104375 -2.56375 7.08375 -3.5625 7.0625 C-3.94383299 5.0710944 -4.27575582 3.06970923 -4.5625 1.0625 C-3.5625 0.0625 -3.5625 0.0625 0 0 Z " fill="#FDFDFB" transform="translate(246.5625,44.9375)"/>
<path d="M0 0 C2.31 0 4.62 0 7 0 C7 2.31 7 4.62 7 7 C4.69 7 2.38 7 0 7 C0 4.69 0 2.38 0 0 Z " fill="#FDFDFC" transform="translate(152,233)"/>
<path d="M0 0 C2.31 0 4.62 0 7 0 C7 2.31 7 4.62 7 7 C4.69 7 2.38 7 0 7 C0 4.69 0 2.38 0 0 Z " fill="#FCFCFC" transform="translate(92,233)"/>
<path d="M0 0 C2.31 0 4.62 0 7 0 C7 2.31 7 4.62 7 7 C4.69 7 2.38 7 0 7 C0 4.69 0 2.38 0 0 Z " fill="#FCFCFC" transform="translate(62,233)"/>
<path d="M0 0 C2.31 0 4.62 0 7 0 C7 2.31 7 4.62 7 7 C4.69 7 2.38 7 0 7 C0 4.69 0 2.38 0 0 Z " fill="#FDFDFC" transform="translate(2,218)"/>
<path d="M0 0 C2.31 0 4.62 0 7 0 C7 2.31 7 4.62 7 7 C4.69 7 2.38 7 0 7 C0 4.69 0 2.38 0 0 Z " fill="#FDFDFC" transform="translate(145,211)"/>
<path d="M0 0 C2.31 0 4.62 0 7 0 C7 2.31 7 4.62 7 7 C4.69 7 2.38 7 0 7 C0 4.69 0 2.38 0 0 Z " fill="#FCFCFB" transform="translate(2,188)"/>
<path d="M0 0 C0.04241723 2.33294775 0.04092937 4.66702567 0 7 C-1 8 -1 8 -4.0625 8.0625 C-5.031875 8.041875 -6.00125 8.02125 -7 8 C-7 5.69 -7 3.38 -7 1 C-1.125 0 -1.125 0 0 0 Z " fill="#FCFDFC" transform="translate(9,172)"/>
<path d="M0 0 C2.31 0 4.62 0 7 0 C6.125 5.75 6.125 5.75 5 8 C3.35 8 1.7 8 0 8 C0 5.36 0 2.72 0 0 Z " fill="#F9FBFA" transform="translate(32,127)"/>
<path d="M0 0 C2.31 0 4.62 0 7 0 C7 2.31 7 4.62 7 7 C4.69 7 2.38 7 0 7 C0 4.69 0 2.38 0 0 Z " fill="#FCFCFB" transform="translate(235,120)"/>
<path d="M0 0 C2.31 0 4.62 0 7 0 C7 2.31 7 4.62 7 7 C4.69 7 2.38 7 0 7 C0 4.69 0 2.38 0 0 Z " fill="#FCFCFB" transform="translate(160,120)"/>
<path d="M0 0 C2.31 0 4.62 0 7 0 C7 2.31 7 4.62 7 7 C4.69 7 2.38 7 0 7 C0 4.69 0 2.38 0 0 Z " fill="#FCFCFB" transform="translate(152,90)"/>
<path d="M0 0 C4.75 0.75 4.75 0.75 7 3 C6.625 5.625 6.625 5.625 6 8 C4.02 8 2.04 8 0 8 C0 5.36 0 2.72 0 0 Z " fill="#FAFBF9" transform="translate(205,82)"/>
<path d="M0 0 C2.31 0 4.62 0 7 0 C7 2.31 7 4.62 7 7 C4.69 7 2.38 7 0 7 C0 4.69 0 2.38 0 0 Z " fill="#FCFCFB" transform="translate(152,75)"/>
<path d="M0 0 C2.31 0 4.62 0 7 0 C7 2.31 7 4.62 7 7 C4.69 7 2.38 7 0 7 C0 4.69 0 2.38 0 0 Z " fill="#FCFDFB" transform="translate(107,75)"/>
<path d="M0 0 C2.31 0 4.62 0 7 0 C7 2.31 7 4.62 7 7 C4.69 7 2.38 7 0 7 C0 4.69 0 2.38 0 0 Z " fill="#FCFDFB" transform="translate(92,75)"/>
<path d="M0 0 C2.31 0 4.62 0 7 0 C7 2.31 7 4.62 7 7 C4.69 7 2.38 7 0 7 C0 4.69 0 2.38 0 0 Z " fill="#FBFCFB" transform="translate(62,75)"/>
<path d="M0 0 C2.31 0 4.62 0 7 0 C7 2.31 7 4.62 7 7 C4.69 7 2.38 7 0 7 C0 4.69 0 2.38 0 0 Z " fill="#FDFDFC" transform="translate(152,60)"/>
<path d="M0 0 C2.31 0 4.62 0 7 0 C7 2.31 7 4.62 7 7 C4.69 7 2.38 7 0 7 C0 4.69 0 2.38 0 0 Z " fill="#FCFDFB" transform="translate(152,45)"/>
<path d="M0 0 C2.31 0 4.62 0 7 0 C7 2.31 7 4.62 7 7 C4.69 7 2.38 7 0 7 C0 4.69 0 2.38 0 0 Z " fill="#FDFDFC" transform="translate(122,45)"/>
<path d="M0 0 C2.31 0 4.62 0 7 0 C7 2.31 7 4.62 7 7 C4.69 7 2.38 7 0 7 C0 4.69 0 2.38 0 0 Z " fill="#FBFCFB" transform="translate(62,45)"/>
<path d="M0 0 C2.31 0 4.62 0 7 0 C7 2.31 7 4.62 7 7 C4.69 7 2.38 7 0 7 C0 4.69 0 2.38 0 0 Z " fill="#FDFDFB" transform="translate(235,37)"/>
<path d="M0 0 C2.31 0 4.62 0 7 0 C7 2.31 7 4.62 7 7 C4.69 7 2.38 7 0 7 C0 4.69 0 2.38 0 0 Z " fill="#FDFDFC" transform="translate(220,37)"/>
<path d="M0 0 C2.31 0 4.62 0 7 0 C7 2.31 7 4.62 7 7 C4.69 7 2.38 7 0 7 C0 4.69 0 2.38 0 0 Z " fill="#FDFDFB" transform="translate(205,37)"/>
<path d="M0 0 C2.31 0 4.62 0 7 0 C7 2.31 7 4.62 7 7 C4.69 7 2.38 7 0 7 C0 4.69 0 2.38 0 0 Z " fill="#FDFDFC" transform="translate(190,37)"/>
<path d="M0 0 C2.31 0 4.62 0 7 0 C7 2.31 7 4.62 7 7 C4.69 7 2.38 7 0 7 C0 4.69 0 2.38 0 0 Z " fill="#FDFDFB" transform="translate(175,37)"/>
<path d="M0 0 C2.31 0 4.62 0 7 0 C7 2.31 7 4.62 7 7 C4.69 7 2.38 7 0 7 C0 4.69 0 2.38 0 0 Z " fill="#FDFDFC" transform="translate(160,37)"/>
<path d="M0 0 C2.31 0 4.62 0 7 0 C7 2.31 7 4.62 7 7 C4.69 7 2.38 7 0 7 C0 4.69 0 2.38 0 0 Z " fill="#FDFDFB" transform="translate(145,37)"/>
<path d="M0 0 C2.31 0 4.62 0 7 0 C7 2.31 7 4.62 7 7 C4.69 7 2.38 7 0 7 C0 4.69 0 2.38 0 0 Z " fill="#FDFDFC" transform="translate(17,37)"/>
<path d="M0 0 C2.31 0 4.62 0 7 0 C7 2.31 7 4.62 7 7 C4.69 7 2.38 7 0 7 C0 4.69 0 2.38 0 0 Z " fill="#FDFDFC" transform="translate(235,22)"/>
<path d="M0 0 C2.31 0 4.62 0 7 0 C7 2.31 7 4.62 7 7 C4.69 7 2.38 7 0 7 C0 4.69 0 2.38 0 0 Z " fill="#FDFDFC" transform="translate(220,22)"/>
<path d="M0 0 C2.31 0 4.62 0 7 0 C7 2.31 7 4.62 7 7 C4.69 7 2.38 7 0 7 C0 4.69 0 2.38 0 0 Z " fill="#FDFDFB" transform="translate(205,22)"/>
<path d="M0 0 C2.31 0 4.62 0 7 0 C7 2.31 7 4.62 7 7 C4.69 7 2.38 7 0 7 C0 4.69 0 2.38 0 0 Z " fill="#FDFDFD" transform="translate(190,22)"/>
<path d="M0 0 C2.31 0 4.62 0 7 0 C7 2.31 7 4.62 7 7 C4.69 7 2.38 7 0 7 C0 4.69 0 2.38 0 0 Z " fill="#FDFDFC" transform="translate(160,22)"/>
<path d="M0 0 C2.31 0 4.62 0 7 0 C7 2.31 7 4.62 7 7 C4.69 7 2.38 7 0 7 C0 4.69 0 2.38 0 0 Z " fill="#FDFDFB" transform="translate(145,22)"/>
<path d="M0 0 C2.31 0 4.62 0 7 0 C7 2.31 7 4.62 7 7 C4.69 7 2.38 7 0 7 C0 4.69 0 2.38 0 0 Z " fill="#FCFCFB" transform="translate(130,22)"/>
<path d="M0 0 C2.33294775 -0.04241723 4.66702567 -0.04092937 7 0 C8 1 8 1 8.125 3.5 C8 6 8 6 7 7 C5.00041636 7.04080783 2.99954746 7.04254356 1 7 C0.67 4.69 0.34 2.38 0 0 Z " fill="#FBFCFA" transform="translate(84,22)"/>
<path d="M0 0 C2.31 0 4.62 0 7 0 C7.04254356 1.99954746 7.04080783 4.00041636 7 6 C6 7 6 7 2.9375 7.0625 C1.4834375 7.0315625 1.4834375 7.0315625 0 7 C0 4.69 0 2.38 0 0 Z " fill="#FCFCFB" transform="translate(220,240)"/>
<path d="M0 0 C2.31 0 4.62 0 7 0 C7.04254356 1.99954746 7.04080783 4.00041636 7 6 C6 7 6 7 2.9375 7.0625 C1.4834375 7.0315625 1.4834375 7.0315625 0 7 C0 4.69 0 2.38 0 0 Z " fill="#FCFCFB" transform="translate(205,240)"/>
<path d="M0 0 C2.31 0 4.62 0 7 0 C7.04254356 1.99954746 7.04080783 4.00041636 7 6 C6 7 6 7 2.9375 7.0625 C1.4834375 7.0315625 1.4834375 7.0315625 0 7 C0 4.69 0 2.38 0 0 Z " fill="#FCFCFC" transform="translate(190,240)"/>
<path d="M0 0 C2.31 0 4.62 0 7 0 C7.04254356 1.99954746 7.04080783 4.00041636 7 6 C6 7 6 7 2.9375 7.0625 C1.4834375 7.0315625 1.4834375 7.0315625 0 7 C0 4.69 0 2.38 0 0 Z " fill="#FDFDFC" transform="translate(175,240)"/>
<path d="M0 0 C2.31 0 4.62 0 7 0 C7.04254356 1.99954746 7.04080783 4.00041636 7 6 C6 7 6 7 2.9375 7.0625 C1.4834375 7.0315625 1.4834375 7.0315625 0 7 C0 4.69 0 2.38 0 0 Z " fill="#FCFCFB" transform="translate(160,240)"/>
<path d="M0 0 C2.31 0 4.62 0 7 0 C7.04254356 1.99954746 7.04080783 4.00041636 7 6 C6 7 6 7 2.9375 7.0625 C1.4834375 7.0315625 1.4834375 7.0315625 0 7 C0 4.69 0 2.38 0 0 Z " fill="#FBFCFA" transform="translate(145,240)"/>
<path d="M0 0 C2.31 0 4.62 0 7 0 C7.04254356 1.99954746 7.04080783 4.00041636 7 6 C6 7 6 7 2.9375 7.0625 C1.4834375 7.0315625 1.4834375 7.0315625 0 7 C0 4.69 0 2.38 0 0 Z " fill="#FCFCFB" transform="translate(213,173)"/>
<path d="M0 0 C2.31 0 4.62 0 7 0 C7.04254356 1.99954746 7.04080783 4.00041636 7 6 C6 7 6 7 2.9375 7.0625 C1.4834375 7.0315625 1.4834375 7.0315625 0 7 C0 4.69 0 2.38 0 0 Z " fill="#FCFCFB" transform="translate(17,173)"/>
<path d="M0 0 C2.31 0 4.62 0 7 0 C7.04254356 1.99954746 7.04080783 4.00041636 7 6 C6 7 6 7 2.9375 7.0625 C1.4834375 7.0315625 1.4834375 7.0315625 0 7 C0 4.69 0 2.38 0 0 Z " fill="#FCFCFC" transform="translate(62,158)"/>
<path d="M0 0 C2.31 0 4.62 0 7 0 C7.04254356 1.99954746 7.04080783 4.00041636 7 6 C6 7 6 7 2.9375 7.0625 C1.4834375 7.0315625 1.4834375 7.0315625 0 7 C0 4.69 0 2.38 0 0 Z " fill="#FCFCFB" transform="translate(2,158)"/>
<path d="M0 0 C2.31 0 4.62 0 7 0 C7.04254356 1.99954746 7.04080783 4.00041636 7 6 C6 7 6 7 2.9375 7.0625 C1.4834375 7.0315625 1.4834375 7.0315625 0 7 C0 4.69 0 2.38 0 0 Z " fill="#FCFCFB" transform="translate(130,135)"/>
<path d="M0 0 C2.31 0 4.62 0 7 0 C7.04254356 1.99954746 7.04080783 4.00041636 7 6 C6 7 6 7 2.9375 7.0625 C1.4834375 7.0315625 1.4834375 7.0315625 0 7 C0 4.69 0 2.38 0 0 Z " fill="#FDFDFC" transform="translate(243,30)"/>
<path d="M0 0 C2.31 0 4.62 0 7 0 C7.04254356 1.99954746 7.04080783 4.00041636 7 6 C6 7 6 7 2.9375 7.0625 C1.4834375 7.0315625 1.4834375 7.0315625 0 7 C0 4.69 0 2.38 0 0 Z " fill="#FCFCFB" transform="translate(107,30)"/>
<path d="M0 0 C2.31 0 4.62 0 7 0 C7.04254356 1.99954746 7.04080783 4.00041636 7 6 C6 7 6 7 2.9375 7.0625 C1.4834375 7.0315625 1.4834375 7.0315625 0 7 C0 4.69 0 2.38 0 0 Z " fill="#FDFDFC" transform="translate(107,15)"/>
<path d="M0 0 C2.31 0 4.62 0 7 0 C7.04254356 1.99954746 7.04080783 4.00041636 7 6 C6 7 6 7 2.9375 7.0625 C1.4834375 7.0315625 1.4834375 7.0315625 0 7 C0 4.69 0 2.38 0 0 Z " fill="#FDFDFB" transform="translate(47,15)"/>
<path d="M0 0 C2.31 0 4.62 0 7 0 C7.04254356 1.99954746 7.04080783 4.00041636 7 6 C6 7 6 7 2.9375 7.0625 C1.4834375 7.0315625 1.4834375 7.0315625 0 7 C0 4.69 0 2.38 0 0 Z " fill="#FDFDFC" transform="translate(32,15)"/>
<path d="M0 0 C2.31 0 4.62 0 7 0 C7.04254356 1.99954746 7.04080783 4.00041636 7 6 C6 7 6 7 3.5 7.125 C1 7 1 7 0 6 C-0.04080783 4.00041636 -0.04254356 1.99954746 0 0 Z " fill="#FCFCFB" transform="translate(235,240)"/>
<path d="M0 0 C1.98 0 3.96 0 6 0 C6 2.64 6 5.28 6 8 C4.33388095 8.042721 2.66617115 8.04063832 1 8 C0 7 0 7 -0.0625 3.4375 C-0.041875 2.303125 -0.02125 1.16875 0 0 Z " fill="#FCFCFB" transform="translate(250,225)"/>
<path d="M0 0 C1.98 0 3.96 0 6 0 C6 2.64 6 5.28 6 8 C4.33388095 8.042721 2.66617115 8.04063832 1 8 C0 7 0 7 -0.0625 3.4375 C-0.041875 2.303125 -0.02125 1.16875 0 0 Z " fill="#FCFCFB" transform="translate(250,210)"/>
<path d="M0 0 C1.98 0 3.96 0 6 0 C6 2.64 6 5.28 6 8 C4.33388095 8.042721 2.66617115 8.04063832 1 8 C0 7 0 7 -0.0625 3.4375 C-0.041875 2.303125 -0.02125 1.16875 0 0 Z " fill="#FCFCFB" transform="translate(250,195)"/>
<path d="M0 0 C2.31 0 4.62 0 7 0 C7.04254356 1.99954746 7.04080783 4.00041636 7 6 C6 7 6 7 3.5 7.125 C1 7 1 7 0 6 C-0.04080783 4.00041636 -0.04254356 1.99954746 0 0 Z " fill="#FCFCFB" transform="translate(152,188)"/>
<path d="M0 0 C1.98 0 3.96 0 6 0 C6 2.64 6 5.28 6 8 C4.33388095 8.042721 2.66617115 8.04063832 1 8 C0 7 0 7 -0.0625 3.4375 C-0.041875 2.303125 -0.02125 1.16875 0 0 Z " fill="#FCFCFB" transform="translate(250,165)"/>
<path d="M0 0 C2.31 0 4.62 0 7 0 C7.04254356 1.99954746 7.04080783 4.00041636 7 6 C6 7 6 7 3.5 7.125 C1 7 1 7 0 6 C-0.04080783 4.00041636 -0.04254356 1.99954746 0 0 Z " fill="#FCFCFB" transform="translate(182,158)"/>
<path d="M0 0 C1.98 0 3.96 0 6 0 C6 2.64 6 5.28 6 8 C4.33388095 8.042721 2.66617115 8.04063832 1 8 C0 7 0 7 -0.0625 3.4375 C-0.041875 2.303125 -0.02125 1.16875 0 0 Z " fill="#FBFCFB" transform="translate(250,97)"/>
<path d="M0 0 C2.31 0 4.62 0 7 0 C7 2.31 7 4.62 7 7 C4.69 6.67 2.38 6.34 0 6 C0 4.02 0 2.04 0 0 Z " fill="#FBFBF9" transform="translate(107,90)"/>
<path d="M0 0 C2.31 0 4.62 0 7 0 C7 1.98 7 3.96 7 6 C4.69 6.33 2.38 6.66 0 7 C0 4.69 0 2.38 0 0 Z " fill="#FBFBFA" transform="translate(24,90)"/>
<path d="M0 0 C1.99954746 -0.04254356 4.00041636 -0.04080783 6 0 C7 1 7 1 7.125 3.5 C7 6 7 6 6 7 C4.00041636 7.04080783 1.99954746 7.04254356 0 7 C0 4.69 0 2.38 0 0 Z " fill="#FDFDFC" transform="translate(130,37)"/>
<path d="M0 0 C1.99954746 -0.04254356 4.00041636 -0.04080783 6 0 C7 1 7 1 7.125 3.5 C7 6 7 6 6 7 C4.00041636 7.04080783 1.99954746 7.04254356 0 7 C0 4.69 0 2.38 0 0 Z " fill="#FDFCFB" transform="translate(100,37)"/>
<path d="M0 0 C1.99954746 -0.04254356 4.00041636 -0.04080783 6 0 C7 1 7 1 7.125 3.5 C7 6 7 6 6 7 C4.00041636 7.04080783 1.99954746 7.04254356 0 7 C0 4.69 0 2.38 0 0 Z " fill="#FDFDFB" transform="translate(2,37)"/>
<path d="M0 0 C2.31 0 4.62 0 7 0 C7.04254356 1.99954746 7.04080783 4.00041636 7 6 C6 7 6 7 3.5 7.125 C1 7 1 7 0 6 C-0.04080783 4.00041636 -0.04254356 1.99954746 0 0 Z " fill="#FDFDFC" transform="translate(152,30)"/>
<path d="M0 0 C2.31 0 4.62 0 7 0 C7.04254356 1.99954746 7.04080783 4.00041636 7 6 C6 7 6 7 3.5 7.125 C1 7 1 7 0 6 C-0.04080783 4.00041636 -0.04254356 1.99954746 0 0 Z " fill="#FDFDFC" transform="translate(137,30)"/>
<path d="M0 0 C2.31 0 4.62 0 7 0 C7.04254356 1.99954746 7.04080783 4.00041636 7 6 C6 7 6 7 3.5 7.125 C1 7 1 7 0 6 C-0.04080783 4.00041636 -0.04254356 1.99954746 0 0 Z " fill="#FCFDFA" transform="translate(92,30)"/>
<path d="M0 0 C1.99954746 -0.04254356 4.00041636 -0.04080783 6 0 C7 1 7 1 7.125 3.5 C7 6 7 6 6 7 C4.00041636 7.04080783 1.99954746 7.04254356 0 7 C0 4.69 0 2.38 0 0 Z " fill="#FDFDFC" transform="translate(175,22)"/>
<path d="M0 0 C1.99954746 -0.04254356 4.00041636 -0.04080783 6 0 C7 1 7 1 7.125 3.5 C7 6 7 6 6 7 C4.00041636 7.04080783 1.99954746 7.04254356 0 7 C0 4.69 0 2.38 0 0 Z " fill="#FDFDFB" transform="translate(100,22)"/>
<path d="M0 0 C2.31 0 4.62 0 7 0 C7.04254356 1.99954746 7.04080783 4.00041636 7 6 C6 7 6 7 3.5 7.125 C1 7 1 7 0 6 C-0.04080783 4.00041636 -0.04254356 1.99954746 0 0 Z " fill="#FDFDFB" transform="translate(152,15)"/>
<path d="M0 0 C2.31 0 4.62 0 7 0 C7.04254356 1.99954746 7.04080783 4.00041636 7 6 C6 7 6 7 3.5 7.125 C1 7 1 7 0 6 C-0.04080783 4.00041636 -0.04254356 1.99954746 0 0 Z " fill="#FDFDFC" transform="translate(92,15)"/>
<path d="M0 0 C2.64 0 5.28 0 8 0 C8.042721 1.66611905 8.04063832 3.33382885 8 5 C7 6 7 6 3.4375 6.0625 C2.303125 6.041875 1.16875 6.02125 0 6 C0 4.02 0 2.04 0 0 Z " fill="#FDFDFB" transform="translate(114,8)"/>
<path d="M0 0 C2.64 0 5.28 0 8 0 C8.042721 1.66611905 8.04063832 3.33382885 8 5 C7 6 7 6 3.4375 6.0625 C2.303125 6.041875 1.16875 6.02125 0 6 C0 4.02 0 2.04 0 0 Z " fill="#FDFDFC" transform="translate(39,8)"/>
<path d="M0 0 C2.64 0 5.28 0 8 0 C8.042721 1.66611905 8.04063832 3.33382885 8 5 C7 6 7 6 3.4375 6.0625 C2.303125 6.041875 1.16875 6.02125 0 6 C0 4.02 0 2.04 0 0 Z " fill="#FDFDFC" transform="translate(9,8)"/>
<path d="M0 0 C2.375 -0.125 2.375 -0.125 5 0 C7 2 7 2 7.125 4.625 C7.08375 5.40875 7.0425 6.1925 7 7 C4.69 7 2.38 7 0 7 C0 4.69 0 2.38 0 0 Z " fill="#F8FAF8" transform="translate(47,188)"/>
<path d="M0 0 C2.31 0 4.62 0 7 0 C6.67 2.31 6.34 4.62 6 7 C4.02 7 2.04 7 0 7 C0 4.69 0 2.38 0 0 Z " fill="#FDFDFC" transform="translate(17,188)"/>
<path d="M0 0 C0 2.97 0 5.94 0 9 C-2.31 9 -4.62 9 -7 9 C-7 6 -7 6 -5.72265625 4.39453125 C-5.17480469 3.87246094 -4.62695312 3.35039062 -4.0625 2.8125 C-3.51722656 2.28269531 -2.97195312 1.75289062 -2.41015625 1.20703125 C-1 0 -1 0 0 0 Z " fill="#ECF2EE" transform="translate(99,186)"/>
<path d="M0 0 C1.98 0 3.96 0 6 0 C6 2.31 6 4.62 6 7 C4.02 7 2.04 7 0 7 C0 4.69 0 2.38 0 0 Z " fill="#FCFCFB" transform="translate(250,135)"/>
<path d="M0 0 C1.98 0 3.96 0 6 0 C6 2.31 6 4.62 6 7 C4.02 7 2.04 7 0 7 C0 4.69 0 2.38 0 0 Z " fill="#FCFCFC" transform="translate(250,120)"/>
<path d="M0 0 C1.98 0 3.96 0 6 0 C6 2.31 6 4.62 6 7 C4.02 7 2.04 7 0 7 C0 4.69 0 2.38 0 0 Z " fill="#FCFDFB" transform="translate(250,52)"/>
<path d="M0 0 C1.98 0 3.96 0 6 0 C6 2.31 6 4.62 6 7 C4.02 7 2.04 7 0 7 C0 4.69 0 2.38 0 0 Z " fill="#FDFDFB" transform="translate(250,37)"/>
<path d="M0 0 C1.98 0 3.96 0 6 0 C6 2.31 6 4.62 6 7 C4.02 7 2.04 7 0 7 C0 4.69 0 2.38 0 0 Z " fill="#FEFDFC" transform="translate(250,22)"/>
<path d="M0 0 C2.31 0 4.62 0 7 0 C7 1.98 7 3.96 7 6 C4.69 6 2.38 6 0 6 C0 4.02 0 2.04 0 0 Z " fill="#FDFDFC" transform="translate(235,8)"/>
<path d="M0 0 C2.31 0 4.62 0 7 0 C7 1.98 7 3.96 7 6 C4.69 6 2.38 6 0 6 C0 4.02 0 2.04 0 0 Z " fill="#FDFDFC" transform="translate(220,8)"/>
<path d="M0 0 C2.31 0 4.62 0 7 0 C7 1.98 7 3.96 7 6 C4.69 6 2.38 6 0 6 C0 4.02 0 2.04 0 0 Z " fill="#FDFDFC" transform="translate(205,8)"/>
<path d="M0 0 C2.31 0 4.62 0 7 0 C7 1.98 7 3.96 7 6 C4.69 6 2.38 6 0 6 C0 4.02 0 2.04 0 0 Z " fill="#FDFDFC" transform="translate(190,8)"/>
<path d="M0 0 C2.31 0 4.62 0 7 0 C7 1.98 7 3.96 7 6 C4.69 6 2.38 6 0 6 C0 4.02 0 2.04 0 0 Z " fill="#FDFDFC" transform="translate(175,8)"/>
<path d="M0 0 C2.31 0 4.62 0 7 0 C7 1.98 7 3.96 7 6 C4.69 6 2.38 6 0 6 C0 4.02 0 2.04 0 0 Z " fill="#FDFDFC" transform="translate(160,8)"/>
<path d="M0 0 C2.31 0 4.62 0 7 0 C7 1.98 7 3.96 7 6 C4.69 6 2.38 6 0 6 C0 4.02 0 2.04 0 0 Z " fill="#FDFDFB" transform="translate(145,8)"/>
<path d="M0 0 C2.31 0 4.62 0 7 0 C7.042721 1.66611905 7.04063832 3.33382885 7 5 C6 6 6 6 2.4375 6.0625 C1.303125 6.041875 0.16875 6.02125 -1 6 C-0.67 4.02 -0.34 2.04 0 0 Z " fill="#FDFDFC" transform="translate(85,8)"/>
<path d="M0 0 C2.31 0 4.62 0 7 0 C7 1.98 7 3.96 7 6 C4.69 6 2.38 6 0 6 C0 4.02 0 2.04 0 0 Z " fill="#FDFDFB" transform="translate(24,8)"/>
<path d="M0 0 C1.98 0 3.96 0 6 0 C6 2.31 6 4.62 6 7 C4.33388095 7.042721 2.66617115 7.04063832 1 7 C0 6 0 6 -0.0625 2.9375 C-0.041875 1.968125 -0.02125 0.99875 0 0 Z " fill="#FCFCFB" transform="translate(250,240)"/>
<path d="M0 0 C0.66 0.33 1.32 0.66 2 1 C2 3.31 2 5.62 2 8 C-0.31 8 -2.62 8 -5 8 C-5 5 -5 5 -2.5 2.3125 C-1.675 1.549375 -0.85 0.78625 0 0 Z " fill="#FAFCFB" transform="translate(60,225)"/>
<path d="M0 0 C1.98 0 3.96 0 6 0 C5.67 2.31 5.34 4.62 5 7 C3.0625 7.5625 3.0625 7.5625 1 8 C0 7 0 7 -0.0625 3.4375 C-0.041875 2.303125 -0.02125 1.16875 0 0 Z " fill="#FAFBF9" transform="translate(9,225)"/>
<path d="M0 0 C1.66611905 -0.042721 3.33382885 -0.04063832 5 0 C6 1 6 1 6.0625 4.0625 C6.041875 5.031875 6.02125 6.00125 6 7 C4.68 7.33 3.36 7.66 2 8 C0.23537317 4.91190305 0 3.76687864 0 0 Z " fill="#FAFCFA" transform="translate(116,195)"/>
<path d="M0 0 C2.21976593 2.21976593 2.39134814 3.00786765 2.96484375 5.9921875 C3.12533203 6.77980469 3.28582031 7.56742188 3.45117188 8.37890625 C3.77378159 10.03471032 4.09411774 11.69095909 4.41210938 13.34765625 C5.59854774 19.17599813 5.59854774 19.17599813 9 24 C7.68 24 6.36 24 5 24 C3.96755249 20.37820437 2.95102919 16.75213106 1.9375 13.125 C1.64294922 12.09246094 1.34839844 11.05992187 1.04492188 9.99609375 C0.77099609 9.00996094 0.49707031 8.02382812 0.21484375 7.0078125 C-0.04176025 6.09660645 -0.29836426 5.18540039 -0.56274414 4.24658203 C-1 2 -1 2 0 0 Z " fill="#429367" transform="translate(88,128)"/>
<path d="M0 0 C6.6 0 13.2 0 20 0 C17.77502475 4.44995051 15.55366005 6.60084691 12 10 C11.34 9.67 10.68 9.34 10 9 C12.31 6.36 14.62 3.72 17 1 C8.585 1.495 8.585 1.495 0 2 C0 1.34 0 0.68 0 0 Z " fill="#3F9E69" transform="translate(59,123)"/>
<path d="M0 0 C0.99 0.33 1.98 0.66 3 1 C2.67 4.63 2.34 8.26 2 12 C0.68 11.67 -0.64 11.34 -2 11 C-2 8.36 -2 5.72 -2 3 C-1.01 3 -0.02 3 1 3 C0.67 2.01 0.34 1.02 0 0 Z " fill="#4BA473" transform="translate(49,49)"/>
<path d="M0 0 C2.31 0 4.62 0 7 0 C7.042721 1.66611905 7.04063832 3.33382885 7 5 C6 6 6 6 2.9375 6.0625 C1.4834375 6.0315625 1.4834375 6.0315625 0 6 C0 4.02 0 2.04 0 0 Z " fill="#FDFDFB" transform="translate(130,8)"/>
<path d="M0 0 C2.31 0 4.62 0 7 0 C7.042721 1.66611905 7.04063832 3.33382885 7 5 C6 6 6 6 2.9375 6.0625 C1.4834375 6.0315625 1.4834375 6.0315625 0 6 C0 4.02 0 2.04 0 0 Z " fill="#FDFDFC" transform="translate(100,8)"/>
<path d="M0 0 C0.66 0.33 1.32 0.66 2 1 C2.04254356 2.99954746 2.04080783 5.00041636 2 7 C1 8 1 8 -2.0625 8.0625 C-3.031875 8.041875 -4.00125 8.02125 -5 8 C-5 5 -5 5 -2.5 2.3125 C-1.675 1.549375 -0.85 0.78625 0 0 Z " fill="#FBFCFA" transform="translate(75,210)"/>
<path d="M0 0 C4.6875 3.61328125 4.6875 3.61328125 6 5 C6 5.99 6 6.98 6 8 C3.69 8 1.38 8 -1 8 C-1.04241723 5.66705225 -1.04092937 3.33297433 -1 1 C-0.67 0.67 -0.34 0.34 0 0 Z " fill="#F6F9F7" transform="translate(78,157)"/>
<path d="M0 0 C2.88437779 1.29299694 4.87219421 2.65941363 7 5 C6.67 5.99 6.34 6.98 6 8 C4.33388095 8.042721 2.66617115 8.04063832 1 8 C0 7 0 7 -0.0625 3.4375 C-0.041875 2.303125 -0.02125 1.16875 0 0 Z " fill="#F8FBF9" transform="translate(130,180)"/>
<path d="M0 0 C2.31 0 4.62 0 7 0 C6.61402985 2.79828356 6.19863427 3.8205884 4.0625 5.75 C2 7 2 7 0 7 C0 4.69 0 2.38 0 0 Z " fill="#F7F9F7" transform="translate(17,97)"/>
<path d="M0 0 C2.31 0 4.62 0 7 0 C7 1.65 7 3.3 7 5 C4.69 5.33 2.38 5.66 0 6 C0 4.02 0 2.04 0 0 Z " fill="#F7FAF7" transform="translate(205,67)"/>
<path d="M0 0 C2.64 0 5.28 0 8 0 C8 0.99 8 1.98 8 3 C5.11165997 5.10770759 3.61537605 6 0 6 C0 4.02 0 2.04 0 0 Z " fill="#FAFCF9" transform="translate(24,45)"/>
<path d="M0 0 C1.98 0 3.96 0 6 0 C6.1875 2.375 6.1875 2.375 6 5 C3 7 3 7 0 7 C0 4.69 0 2.38 0 0 Z " fill="#FAFCFA" transform="translate(47,30)"/>
<path d="M0 0 C2.31 0 4.62 0 7 0 C7 2.31 7 4.62 7 7 C4.0625 5.75 4.0625 5.75 1 4 C0.125 1.8125 0.125 1.8125 0 0 Z " fill="#F8FBF8" transform="translate(107,45)"/>
<path d="M0 0 C1.98 0 3.96 0 6 0 C6 1.98 6 3.96 6 6 C4.02 6 2.04 6 0 6 C0 4.02 0 2.04 0 0 Z " fill="#FDFDFC" transform="translate(250,8)"/>
<path d="M0 0 C0.04241723 2.33294775 0.04092937 4.66702567 0 7 C-1 8 -1 8 -4.0625 8.0625 C-5.031875 8.041875 -6.00125 8.02125 -7 8 C-5.84316054 5.30070793 -3.38550714 0 0 0 Z " fill="#FAFBFA" transform="translate(54,232)"/>
<path d="M0 0 C0.66 1.32 1.32 2.64 2 4 C0.37660195 5.70884005 -1.29319053 7.37446717 -3 9 C-3.66 9 -4.32 9 -5 9 C-5.33 8.01 -5.66 7.02 -6 6 C-4.02 4.02 -2.04 2.04 0 0 Z " fill="#F0F6F1" transform="translate(105,179)"/>
<path d="M0 0 C2.64 0 5.28 0 8 0 C8 1.32 8 2.64 8 4 C5.36 4 2.72 4 0 4 C0 2.68 0 1.36 0 0 Z " fill="#FCFDFB" transform="translate(39,60)"/>
<path d="M0 0 C1.32 0 2.64 0 4 0 C4.33 2.31 4.66 4.62 5 7 C3.35 7 1.7 7 0 7 C0 4.69 0 2.38 0 0 Z " fill="#F8FCF8" transform="translate(69,22)"/>
<path d="M0 0 C2.31 0 4.62 0 7 0 C7 1.32 7 2.64 7 4 C4.69 4 2.38 4 0 4 C0 2.68 0 1.36 0 0 Z " fill="#FDFDFC" transform="translate(92,60)"/>
<path d="M0 0 C2.31 0 4.62 0 7 0 C7 1.32 7 2.64 7 4 C4.69 4 2.38 4 0 4 C0 2.68 0 1.36 0 0 Z " fill="#FCFDFA" transform="translate(62,60)"/>
<path d="M0 0 C2.475 0.495 2.475 0.495 5 1 C5 2.65 5 4.3 5 6 C3.68 6 2.36 6 1 6 C0.67 4.02 0.34 2.04 0 0 Z " fill="#F5F9F7" transform="translate(125,233)"/>
<path d="M0 0 C0.99 0 1.98 0 3 0 C2.38722388 2.96175123 1.74627478 4.38058783 0 7 C-1.32 7 -2.64 7 -4 7 C-2.79618552 4.50638429 -1.54571278 2.31856917 0 0 Z " fill="#F5F9F5" transform="translate(81,203)"/>
<path d="M0 0 C0.66 0.33 1.32 0.66 2 1 C1.05125 1.9075 0.1025 2.815 -0.875 3.75 C-3.14549867 6.00978877 -4.83296506 7.96570916 -6 11 C-6.375 7.75 -6.375 7.75 -6 4 C-3 1.5625 -3 1.5625 0 0 Z " fill="#2B9A5F" transform="translate(7,62)"/>
<path d="M0 0 C2.64 0 5.28 0 8 0 C8 0.99 8 1.98 8 3 C5.36 3 2.72 3 0 3 C0 2.01 0 1.02 0 0 Z " fill="#FAFCFB" transform="translate(24,124)"/>
<path d="M0 0 C0.99 0 1.98 0 3 0 C3.33 2.31 3.66 4.62 4 7 C2.68 7 1.36 7 0 7 C0 4.69 0 2.38 0 0 Z " fill="#F8FBF9" transform="translate(77,75)"/>
<path d="M0 0 C0 3.93169105 -1.39419615 5.16427228 -4 8 C-4.66 8 -5.32 8 -6 8 C-6.33 8.99 -6.66 9.98 -7 11 C-7.66 11 -8.32 11 -9 11 C-7.44095325 7.17324889 -4.96833913 4.81992217 -2 2 C-1.34 1.34 -0.68 0.68 0 0 Z " fill="#47A270" transform="translate(156,144)"/>
<path d="M0 0 C1.32 0.33 2.64 0.66 4 1 C3.34 2.98 2.68 4.96 2 7 C1.34 7 0.68 7 0 7 C0 4.69 0 2.38 0 0 Z " fill="#F4F9F5" transform="translate(17,203)"/>
<path d="M0 0 C2.31 0 4.62 0 7 0 C7 0.99 7 1.98 7 3 C4.69 3 2.38 3 0 3 C0 2.01 0 1.02 0 0 Z " fill="#FCFCFC" transform="translate(100,124)"/>
<path d="M0 0 C0.99 0 1.98 0 3 0 C3 2.31 3 4.62 3 7 C2.01 7 1.02 7 0 7 C0 4.69 0 2.38 0 0 Z " fill="#FAFCF9" transform="translate(96,105)"/>
<path d="M0 0 C0.99 0.495 0.99 0.495 2 1 C2.67784992 3.33010909 3.34416793 5.66359824 4 8 C4.66 8.66 5.32 9.32 6 10 C4.68 10 3.36 10 2 10 C0.68373308 6.38026598 0 3.90432869 0 0 Z " fill="#4E9A70" transform="translate(91,142)"/>
<path d="M0 0 C0.99 0 1.98 0 3 0 C2.67 2.64 2.34 5.28 2 8 C1.34 8 0.68 8 0 8 C0 5.36 0 2.72 0 0 Z " fill="#F8FCF7" transform="translate(47,52)"/>
<path d="M0 0 C1.65 0 3.3 0 5 0 C5 1.32 5 2.64 5 4 C3.35 4 1.7 4 0 4 C0 2.68 0 1.36 0 0 Z " fill="#F7FBF7" transform="translate(64,30)"/>
<path d="M0 0 C0.33 0 0.66 0 1 0 C1 1.65 1 3.3 1 5 C-0.65 5.33 -2.3 5.66 -4 6 C-2.84826645 3.53199953 -1.95216435 1.95216435 0 0 Z " fill="#FCFCFB" transform="translate(219,114)"/>
<path d="M0 0 C2.31 0 4.62 0 7 0 C2.25 4 2.25 4 0 4 C0 2.68 0 1.36 0 0 Z " fill="#F0F7F2" transform="translate(17,52)"/>
<path d="M0 0 C0.33 0 0.66 0 1 0 C1 2.31 1 4.62 1 7 C0.67 7 0.34 7 0 7 C0 4.69 0 2.38 0 0 Z " fill="#FDFEFC" transform="translate(1,211)"/>
<path d="M0 0 C0.33 0 0.66 0 1 0 C1 1.98 1 3.96 1 6 C0.67 6 0.34 6 0 6 C0 4.02 0 2.04 0 0 Z " fill="#FEFEFD" transform="translate(1,45)"/>
</svg>
