<svg xmlns="http://www.w3.org/2000/svg" viewBox="0 0 256 256">
  <!-- Donkerblauwe achtergrond -->
  <rect width="256" height="256" rx="32" fill="#1e3a8a"/>

  <!-- Witte grafieklijn (stijgende curve) -->
  <path d="M 40 180 Q 80 160, 100 140 T 160 100 T 216 60" 
        stroke="white" 
        stroke-width="8" 
        fill="none" 
        stroke-linecap="round" 
        stroke-linejoin="round"/>

  <!-- Oranje datapunten (NL-knipoog) -->
  <circle cx="100" cy="140" r="6" fill="#f97316"/>
  <circle cx="160" cy="100" r="6" fill="#f97316"/>
  <circle cx="216" cy="60" r="6" fill="#f97316"/>

  <!-- Windmolen linksboven (grote wieken) -->
  <g transform="translate(56, 56)">
    <!-- Mast -->
    <rect x="-2" y="10" width="4" height="38" fill="white"/>
    <!-- Grote wieken -->
    <line x1="0" y1="10" x2="0" y2="-24" stroke="white" stroke-width="3" stroke-linecap="round"/>
    <line x1="0" y1="10" x2="28" y2="22" stroke="white" stroke-width="3" stroke-linecap="round"/>
    <line x1="0" y1="10" x2="-28" y2="22" stroke="white" stroke-width="3" stroke-linecap="round"/>
    <!-- Naaf -->
    <circle cx="0" cy="10" r="4" fill="#f97316"/>
  </g>

  <!-- Zonnepaneel rechtsonder (groter) -->
  <g transform="translate(164, 176)">
    <!-- Paneel (vergroot) -->
    <rect x="0" y="0" width="72" height="40" rx="3" 
          fill="white" stroke="#f97316" stroke-width="3"/>
    <!-- Verticale gridlijnen -->
    <line x1="18" y1="0" x2="18" y2="40" stroke="#1e3a8a" stroke-width="2"/>
    <line x1="36" y1="0" x2="36" y2="40" stroke="#1e3a8a" stroke-width="2"/>
    <line x1="54" y1="0" x2="54" y2="40" stroke="#1e3a8a" stroke-width="2"/>
    <!-- Horizontale gridlijnen -->
    <line x1="0" y1="13.3" x2="72" y2="13.3" stroke="#1e3a8a" stroke-width="2"/>
    <line x1="0" y1="26.6" x2="72" y2="26.6" stroke="#1e3a8a" stroke-width="2"/>
  </g>
</svg>
