<svg xmlns="http://www.w3.org/2000/svg" viewBox="0 0 256 256">
  <!-- Donkerblauwe achtergrond -->
  <rect width="256" height="256" rx="32" fill="#1e3a8a"/>
  
  <!-- Witte grafieklijn (stijgende curve) -->
  <path d="M 40 180 Q 80 160, 100 140 T 160 100 T 216 60" 
        stroke="white" 
        stroke-width="8" 
        fill="none" 
        stroke-linecap="round" 
        stroke-linejoin="round"/>
  
  <!-- Oranje datapunten (NL-knipoog) -->
  <circle cx="100" cy="140" r="6" fill="#f97316"/>
  <circle cx="160" cy="100" r="6" fill="#f97316"/>
  <circle cx="216" cy="60" r="6" fill="#f97316"/>
  
  <!-- Windmolen linksboven -->
  <g transform="translate(45, 45)">
    <!-- Mast -->
    <rect x="18" y="15" width="4" height="30" fill="white"/>
    <!-- Wieken -->
    <line x1="20" y1="15" x2="20" y2="5" stroke="white" stroke-width="2"/>
    <line x1="20" y1="15" x2="28" y2="20" stroke="white" stroke-width="2"/>
    <line x1="20" y1="15" x2="12" y2="20" stroke="white" stroke-width="2"/>
    <!-- Naaf -->
    <circle cx="20" cy="15" r="3" fill="#f97316"/>
  </g>
  
  <!-- Zonnepaneel rechtsonder -->
  <g transform="translate(190, 200)">
    <!-- Paneel -->
    <rect x="0" y="0" width="40" height="24" rx="2" fill="white" stroke="#f97316" stroke-width="2"/>
    <!-- Grid lijnen -->
    <line x1="13" y1="0" x2="13" y2="24" stroke="#1e3a8a" stroke-width="1.5"/>
    <line x1="27" y1="0" x2="27" y2="24" stroke="#1e3a8a" stroke-width="1.5"/>
    <line x1="0" y1="12" x2="40" y2="12" stroke="#1e3a8a" stroke-width="1.5"/>
  </g>
</svg>
